<mxfile host="app.diagrams.net" modified="2024-02-26T17:00:36.631Z" agent="Mozilla/5.0 (Macintosh; Intel Mac OS X 10_15_7) AppleWebKit/605.1.15 (KHTML, like Gecko) Version/17.2.1 Safari/605.1.15" etag="gREQX6p_e1XvXvuQ6L8L" version="23.1.5" type="github">
  <diagram name="Page-1" id="w1v2pbCQFpZ6DE9W8kbo">
    <mxGraphModel dx="1434" dy="759" grid="1" gridSize="10" guides="1" tooltips="1" connect="1" arrows="1" fold="1" page="1" pageScale="1" pageWidth="1400" pageHeight="850" math="1" shadow="0">
      <root>
        <mxCell id="0" />
        <mxCell id="1" parent="0" />
        <mxCell id="zq6gwk42By_WQmrwpAdC-290" value="" style="rounded=0;whiteSpace=wrap;html=1;strokeColor=none;" parent="1" vertex="1">
          <mxGeometry x="69.78999999999999" y="30" width="1140" height="400" as="geometry" />
        </mxCell>
        <mxCell id="zq6gwk42By_WQmrwpAdC-293" value="" style="group" parent="1" vertex="1" connectable="0">
          <mxGeometry x="82" y="60" width="1115.5896240601503" height="340" as="geometry" />
        </mxCell>
        <mxCell id="zq6gwk42By_WQmrwpAdC-291" value="" style="group" parent="zq6gwk42By_WQmrwpAdC-293" vertex="1" connectable="0">
          <mxGeometry width="1115.5896240601503" height="340" as="geometry" />
        </mxCell>
        <mxCell id="zq6gwk42By_WQmrwpAdC-72" value="" style="group" parent="zq6gwk42By_WQmrwpAdC-291" vertex="1" connectable="0">
          <mxGeometry y="30" width="243.84962406015035" height="310" as="geometry" />
        </mxCell>
        <mxCell id="zq6gwk42By_WQmrwpAdC-155" value="" style="group" parent="zq6gwk42By_WQmrwpAdC-72" vertex="1" connectable="0">
          <mxGeometry x="0.36090225563913236" y="103.6736842105263" width="243.48872180451121" height="101.8526315789474" as="geometry" />
        </mxCell>
        <mxCell id="zq6gwk42By_WQmrwpAdC-154" value="" style="group" parent="zq6gwk42By_WQmrwpAdC-155" vertex="1" connectable="0">
          <mxGeometry y="0.8000000000000256" width="70.85714285714286" height="101.05263157894737" as="geometry" />
        </mxCell>
        <mxCell id="zq6gwk42By_WQmrwpAdC-10" value="" style="ellipse;whiteSpace=wrap;html=1;rotation=-90;fillColor=#dae8fc;strokeColor=#6c8ebf;" parent="zq6gwk42By_WQmrwpAdC-154" vertex="1">
          <mxGeometry x="-15.097744360902265" y="15.097744360902254" width="101.05263157894736" height="70.85714285714286" as="geometry" />
        </mxCell>
        <mxCell id="zq6gwk42By_WQmrwpAdC-11" value="6" style="ellipse;whiteSpace=wrap;html=1;aspect=fixed;fillColor=#f8cecc;strokeColor=#b85450;fontSize=20;" parent="zq6gwk42By_WQmrwpAdC-154" vertex="1">
          <mxGeometry x="22.637518796992467" y="16.370601503759385" width="25" height="25" as="geometry" />
        </mxCell>
        <mxCell id="zq6gwk42By_WQmrwpAdC-12" value="7" style="ellipse;whiteSpace=wrap;html=1;aspect=fixed;fillColor=#f8cecc;strokeColor=#b85450;fontSize=20;" parent="zq6gwk42By_WQmrwpAdC-154" vertex="1">
          <mxGeometry x="22.637518796992467" y="59.37203007518798" width="25" height="25" as="geometry" />
        </mxCell>
        <mxCell id="zq6gwk42By_WQmrwpAdC-152" value="" style="group" parent="zq6gwk42By_WQmrwpAdC-155" vertex="1" connectable="0">
          <mxGeometry x="172.63157894736838" width="70.85714285714286" height="101.05263157894737" as="geometry" />
        </mxCell>
        <mxCell id="zq6gwk42By_WQmrwpAdC-4" value="" style="ellipse;whiteSpace=wrap;html=1;rotation=-90;fillColor=#dae8fc;strokeColor=#6c8ebf;" parent="zq6gwk42By_WQmrwpAdC-152" vertex="1">
          <mxGeometry x="-15.097744360902254" y="15.097744360902283" width="101.05263157894736" height="70.85714285714286" as="geometry" />
        </mxCell>
        <mxCell id="zq6gwk42By_WQmrwpAdC-5" value="2" style="ellipse;whiteSpace=wrap;html=1;aspect=fixed;fillColor=#f8cecc;strokeColor=#b85450;fontSize=20;" parent="zq6gwk42By_WQmrwpAdC-152" vertex="1">
          <mxGeometry x="22.637518796992516" y="15.086315789473712" width="25" height="25" as="geometry" />
        </mxCell>
        <mxCell id="zq6gwk42By_WQmrwpAdC-6" value="3" style="ellipse;whiteSpace=wrap;html=1;aspect=fixed;fillColor=#f8cecc;strokeColor=#b85450;fontSize=20;" parent="zq6gwk42By_WQmrwpAdC-152" vertex="1">
          <mxGeometry x="22.637518796992516" y="59.37203007518801" width="25" height="25" as="geometry" />
        </mxCell>
        <mxCell id="zq6gwk42By_WQmrwpAdC-156" value="" style="group" parent="zq6gwk42By_WQmrwpAdC-72" vertex="1" connectable="0">
          <mxGeometry x="86.6766917293233" y="2.616541353383475" width="70.85714285714289" height="304.76691729323306" as="geometry" />
        </mxCell>
        <mxCell id="zq6gwk42By_WQmrwpAdC-151" value="" style="group" parent="zq6gwk42By_WQmrwpAdC-156" vertex="1" connectable="0">
          <mxGeometry width="70.85714285714288" height="101.05263157894737" as="geometry" />
        </mxCell>
        <mxCell id="zq6gwk42By_WQmrwpAdC-1" value="" style="ellipse;whiteSpace=wrap;html=1;rotation=-90;fillColor=#dae8fc;strokeColor=#6c8ebf;" parent="zq6gwk42By_WQmrwpAdC-151" vertex="1">
          <mxGeometry x="-15.097744360902254" y="15.09774436090224" width="101.05263157894736" height="70.85714285714286" as="geometry" />
        </mxCell>
        <mxCell id="zq6gwk42By_WQmrwpAdC-2" value="0" style="ellipse;whiteSpace=wrap;html=1;aspect=fixed;fillColor=#f8cecc;strokeColor=#b85450;fontSize=20;" parent="zq6gwk42By_WQmrwpAdC-151" vertex="1">
          <mxGeometry x="22.637518796992474" y="15.086315789473666" width="25" height="25" as="geometry" />
        </mxCell>
        <mxCell id="zq6gwk42By_WQmrwpAdC-3" value="1" style="ellipse;whiteSpace=wrap;html=1;aspect=fixed;fillColor=#f8cecc;strokeColor=#b85450;fontSize=20;" parent="zq6gwk42By_WQmrwpAdC-151" vertex="1">
          <mxGeometry x="22.637518796992474" y="59.37203007518796" width="25" height="25" as="geometry" />
        </mxCell>
        <mxCell id="zq6gwk42By_WQmrwpAdC-153" value="" style="group" parent="zq6gwk42By_WQmrwpAdC-156" vertex="1" connectable="0">
          <mxGeometry y="203.71428571428575" width="70.85714285714289" height="101.05263157894731" as="geometry" />
        </mxCell>
        <mxCell id="zq6gwk42By_WQmrwpAdC-7" value="" style="ellipse;whiteSpace=wrap;html=1;rotation=-90;fillColor=#dae8fc;strokeColor=#6c8ebf;" parent="zq6gwk42By_WQmrwpAdC-153" vertex="1">
          <mxGeometry x="-15.097744360902226" y="15.097744360902226" width="101.05263157894736" height="70.85714285714286" as="geometry" />
        </mxCell>
        <mxCell id="zq6gwk42By_WQmrwpAdC-8" value="4" style="ellipse;whiteSpace=wrap;html=1;aspect=fixed;fillColor=#f8cecc;strokeColor=#b85450;fontSize=20;" parent="zq6gwk42By_WQmrwpAdC-153" vertex="1">
          <mxGeometry x="22.637518796992516" y="15.086315789473641" width="25" height="25" as="geometry" />
        </mxCell>
        <mxCell id="zq6gwk42By_WQmrwpAdC-9" value="5" style="ellipse;whiteSpace=wrap;html=1;aspect=fixed;fillColor=#f8cecc;strokeColor=#b85450;fontSize=20;" parent="zq6gwk42By_WQmrwpAdC-153" vertex="1">
          <mxGeometry x="22.637518796992516" y="59.372030075187894" width="25" height="25" as="geometry" />
        </mxCell>
        <mxCell id="zq6gwk42By_WQmrwpAdC-23" style="rounded=0;orthogonalLoop=1;jettySize=auto;html=1;exitX=1;exitY=0;exitDx=0;exitDy=0;entryX=0;entryY=0.5;entryDx=0;entryDy=0;" parent="zq6gwk42By_WQmrwpAdC-72" source="zq6gwk42By_WQmrwpAdC-11" target="zq6gwk42By_WQmrwpAdC-2" edge="1">
          <mxGeometry relative="1" as="geometry" />
        </mxCell>
        <mxCell id="zq6gwk42By_WQmrwpAdC-24" style="rounded=0;orthogonalLoop=1;jettySize=auto;html=1;exitX=1;exitY=0;exitDx=0;exitDy=0;entryX=0;entryY=0.5;entryDx=0;entryDy=0;" parent="zq6gwk42By_WQmrwpAdC-72" source="zq6gwk42By_WQmrwpAdC-12" target="zq6gwk42By_WQmrwpAdC-2" edge="1">
          <mxGeometry relative="1" as="geometry" />
        </mxCell>
        <mxCell id="zq6gwk42By_WQmrwpAdC-25" style="rounded=0;orthogonalLoop=1;jettySize=auto;html=1;exitX=1;exitY=0;exitDx=0;exitDy=0;entryX=0;entryY=0.5;entryDx=0;entryDy=0;" parent="zq6gwk42By_WQmrwpAdC-72" source="zq6gwk42By_WQmrwpAdC-12" target="zq6gwk42By_WQmrwpAdC-3" edge="1">
          <mxGeometry relative="1" as="geometry" />
        </mxCell>
        <mxCell id="zq6gwk42By_WQmrwpAdC-13" style="rounded=0;orthogonalLoop=1;jettySize=auto;html=1;exitX=1;exitY=1;exitDx=0;exitDy=0;entryX=0;entryY=0;entryDx=0;entryDy=0;" parent="zq6gwk42By_WQmrwpAdC-72" source="zq6gwk42By_WQmrwpAdC-2" target="zq6gwk42By_WQmrwpAdC-5" edge="1">
          <mxGeometry relative="1" as="geometry" />
        </mxCell>
        <mxCell id="zq6gwk42By_WQmrwpAdC-14" style="rounded=0;orthogonalLoop=1;jettySize=auto;html=1;exitX=1;exitY=1;exitDx=0;exitDy=0;entryX=0;entryY=0;entryDx=0;entryDy=0;" parent="zq6gwk42By_WQmrwpAdC-72" source="zq6gwk42By_WQmrwpAdC-2" target="zq6gwk42By_WQmrwpAdC-6" edge="1">
          <mxGeometry relative="1" as="geometry" />
        </mxCell>
        <mxCell id="zq6gwk42By_WQmrwpAdC-17" style="rounded=0;orthogonalLoop=1;jettySize=auto;html=1;exitX=1;exitY=1;exitDx=0;exitDy=0;entryX=0;entryY=0;entryDx=0;entryDy=0;" parent="zq6gwk42By_WQmrwpAdC-72" source="zq6gwk42By_WQmrwpAdC-3" target="zq6gwk42By_WQmrwpAdC-6" edge="1">
          <mxGeometry relative="1" as="geometry">
            <mxPoint x="202.1052631578947" y="172.71428571428572" as="targetPoint" />
          </mxGeometry>
        </mxCell>
        <mxCell id="zq6gwk42By_WQmrwpAdC-20" style="rounded=0;orthogonalLoop=1;jettySize=auto;html=1;exitX=0;exitY=0;exitDx=0;exitDy=0;entryX=1;entryY=1;entryDx=0;entryDy=0;" parent="zq6gwk42By_WQmrwpAdC-72" source="zq6gwk42By_WQmrwpAdC-8" target="zq6gwk42By_WQmrwpAdC-11" edge="1">
          <mxGeometry relative="1" as="geometry" />
        </mxCell>
        <mxCell id="zq6gwk42By_WQmrwpAdC-21" style="rounded=0;orthogonalLoop=1;jettySize=auto;html=1;exitX=0;exitY=0;exitDx=0;exitDy=0;entryX=1;entryY=1;entryDx=0;entryDy=0;" parent="zq6gwk42By_WQmrwpAdC-72" source="zq6gwk42By_WQmrwpAdC-8" target="zq6gwk42By_WQmrwpAdC-12" edge="1">
          <mxGeometry relative="1" as="geometry" />
        </mxCell>
        <mxCell id="zq6gwk42By_WQmrwpAdC-22" style="rounded=0;orthogonalLoop=1;jettySize=auto;html=1;exitX=0;exitY=0;exitDx=0;exitDy=0;entryX=1;entryY=1;entryDx=0;entryDy=0;" parent="zq6gwk42By_WQmrwpAdC-72" source="zq6gwk42By_WQmrwpAdC-9" target="zq6gwk42By_WQmrwpAdC-12" edge="1">
          <mxGeometry relative="1" as="geometry" />
        </mxCell>
        <mxCell id="UWYhMmHwuUDx0fJ9LUwp-1" style="rounded=0;orthogonalLoop=1;jettySize=auto;html=1;exitX=0;exitY=1;exitDx=0;exitDy=0;entryX=1;entryY=0;entryDx=0;entryDy=0;" parent="zq6gwk42By_WQmrwpAdC-72" source="zq6gwk42By_WQmrwpAdC-5" target="zq6gwk42By_WQmrwpAdC-8" edge="1">
          <mxGeometry relative="1" as="geometry" />
        </mxCell>
        <mxCell id="zq6gwk42By_WQmrwpAdC-254" value="$$\mathcal{G}(\mathbf{A})$$&amp;nbsp;" style="text;html=1;strokeColor=none;fillColor=none;align=center;verticalAlign=middle;whiteSpace=wrap;rounded=0;fontSize=20;" parent="zq6gwk42By_WQmrwpAdC-291" vertex="1">
          <mxGeometry x="24.920000000000016" width="194" height="30" as="geometry" />
        </mxCell>
        <mxCell id="zq6gwk42By_WQmrwpAdC-157" value="" style="group" parent="zq6gwk42By_WQmrwpAdC-291" vertex="1" connectable="0">
          <mxGeometry x="286" y="30" width="243.84962406015035" height="310" as="geometry" />
        </mxCell>
        <mxCell id="zq6gwk42By_WQmrwpAdC-158" value="" style="group" parent="zq6gwk42By_WQmrwpAdC-157" vertex="1" connectable="0">
          <mxGeometry x="0.36090225563913236" y="103.6736842105263" width="243.48872180451121" height="101.8526315789474" as="geometry" />
        </mxCell>
        <mxCell id="zq6gwk42By_WQmrwpAdC-159" value="" style="group" parent="zq6gwk42By_WQmrwpAdC-158" vertex="1" connectable="0">
          <mxGeometry y="0.8000000000000256" width="70.85714285714286" height="101.05263157894737" as="geometry" />
        </mxCell>
        <mxCell id="zq6gwk42By_WQmrwpAdC-160" value="" style="ellipse;whiteSpace=wrap;html=1;rotation=-90;fillColor=#dae8fc;strokeColor=#6c8ebf;" parent="zq6gwk42By_WQmrwpAdC-159" vertex="1">
          <mxGeometry x="-15.097744360902265" y="15.097744360902254" width="101.05263157894736" height="70.85714285714286" as="geometry" />
        </mxCell>
        <mxCell id="ntWDkLDmYSj48sWUWbAF-15" style="edgeStyle=orthogonalEdgeStyle;rounded=0;orthogonalLoop=1;jettySize=auto;html=1;exitX=0.5;exitY=1;exitDx=0;exitDy=0;entryX=0.5;entryY=0;entryDx=0;entryDy=0;endArrow=none;endFill=0;" parent="zq6gwk42By_WQmrwpAdC-159" source="zq6gwk42By_WQmrwpAdC-161" target="zq6gwk42By_WQmrwpAdC-162" edge="1">
          <mxGeometry relative="1" as="geometry" />
        </mxCell>
        <mxCell id="zq6gwk42By_WQmrwpAdC-161" value="6" style="ellipse;whiteSpace=wrap;html=1;aspect=fixed;fillColor=#f8cecc;strokeColor=#b85450;fontSize=20;" parent="zq6gwk42By_WQmrwpAdC-159" vertex="1">
          <mxGeometry x="22.637518796992467" y="16.370601503759385" width="25" height="25" as="geometry" />
        </mxCell>
        <mxCell id="zq6gwk42By_WQmrwpAdC-162" value="7" style="ellipse;whiteSpace=wrap;html=1;aspect=fixed;fillColor=#f8cecc;strokeColor=#b85450;fontSize=20;" parent="zq6gwk42By_WQmrwpAdC-159" vertex="1">
          <mxGeometry x="22.637518796992467" y="59.37203007518798" width="25" height="25" as="geometry" />
        </mxCell>
        <mxCell id="ntWDkLDmYSj48sWUWbAF-13" style="edgeStyle=orthogonalEdgeStyle;rounded=0;orthogonalLoop=1;jettySize=auto;html=1;exitX=0;exitY=0;exitDx=0;exitDy=0;entryX=1;entryY=0;entryDx=0;entryDy=0;curved=1;" parent="zq6gwk42By_WQmrwpAdC-159" source="zq6gwk42By_WQmrwpAdC-161" target="zq6gwk42By_WQmrwpAdC-161" edge="1">
          <mxGeometry relative="1" as="geometry">
            <Array as="points">
              <mxPoint x="26" y="6" />
              <mxPoint x="44" y="6" />
            </Array>
          </mxGeometry>
        </mxCell>
        <mxCell id="ntWDkLDmYSj48sWUWbAF-14" style="edgeStyle=orthogonalEdgeStyle;rounded=0;orthogonalLoop=1;jettySize=auto;html=1;exitX=1;exitY=1;exitDx=0;exitDy=0;entryX=0;entryY=1;entryDx=0;entryDy=0;curved=1;" parent="zq6gwk42By_WQmrwpAdC-159" source="zq6gwk42By_WQmrwpAdC-162" target="zq6gwk42By_WQmrwpAdC-162" edge="1">
          <mxGeometry relative="1" as="geometry">
            <Array as="points">
              <mxPoint x="44" y="96" />
              <mxPoint x="26" y="96" />
            </Array>
          </mxGeometry>
        </mxCell>
        <mxCell id="zq6gwk42By_WQmrwpAdC-163" value="" style="group" parent="zq6gwk42By_WQmrwpAdC-158" vertex="1" connectable="0">
          <mxGeometry x="172.63157894736838" width="70.85714285714286" height="101.05263157894737" as="geometry" />
        </mxCell>
        <mxCell id="zq6gwk42By_WQmrwpAdC-164" value="" style="ellipse;whiteSpace=wrap;html=1;rotation=-90;fillColor=#dae8fc;strokeColor=#6c8ebf;" parent="zq6gwk42By_WQmrwpAdC-163" vertex="1">
          <mxGeometry x="-15.097744360902254" y="15.097744360902283" width="101.05263157894736" height="70.85714285714286" as="geometry" />
        </mxCell>
        <mxCell id="zq6gwk42By_WQmrwpAdC-165" value="2" style="ellipse;whiteSpace=wrap;html=1;aspect=fixed;fillColor=#f8cecc;strokeColor=#b85450;fontSize=20;" parent="zq6gwk42By_WQmrwpAdC-163" vertex="1">
          <mxGeometry x="22.637518796992516" y="15.086315789473712" width="25" height="25" as="geometry" />
        </mxCell>
        <mxCell id="zq6gwk42By_WQmrwpAdC-166" value="3" style="ellipse;whiteSpace=wrap;html=1;aspect=fixed;fillColor=#f8cecc;strokeColor=#b85450;fontSize=20;" parent="zq6gwk42By_WQmrwpAdC-163" vertex="1">
          <mxGeometry x="22.637518796992516" y="59.37203007518801" width="25" height="25" as="geometry" />
        </mxCell>
        <mxCell id="ntWDkLDmYSj48sWUWbAF-10" style="edgeStyle=orthogonalEdgeStyle;rounded=0;orthogonalLoop=1;jettySize=auto;html=1;exitX=0;exitY=0;exitDx=0;exitDy=0;entryX=1;entryY=0;entryDx=0;entryDy=0;curved=1;" parent="zq6gwk42By_WQmrwpAdC-163" source="zq6gwk42By_WQmrwpAdC-165" target="zq6gwk42By_WQmrwpAdC-165" edge="1">
          <mxGeometry relative="1" as="geometry">
            <Array as="points">
              <mxPoint x="26" y="6" />
              <mxPoint x="44" y="6" />
            </Array>
          </mxGeometry>
        </mxCell>
        <mxCell id="zq6gwk42By_WQmrwpAdC-167" value="" style="group" parent="zq6gwk42By_WQmrwpAdC-157" vertex="1" connectable="0">
          <mxGeometry x="86.6766917293233" y="2.616541353383475" width="70.85714285714289" height="304.76691729323306" as="geometry" />
        </mxCell>
        <mxCell id="zq6gwk42By_WQmrwpAdC-168" value="" style="group" parent="zq6gwk42By_WQmrwpAdC-167" vertex="1" connectable="0">
          <mxGeometry width="70.85714285714288" height="101.05263157894737" as="geometry" />
        </mxCell>
        <mxCell id="zq6gwk42By_WQmrwpAdC-169" value="" style="ellipse;whiteSpace=wrap;html=1;rotation=-90;fillColor=#dae8fc;strokeColor=#6c8ebf;" parent="zq6gwk42By_WQmrwpAdC-168" vertex="1">
          <mxGeometry x="-15.097744360902254" y="15.09774436090224" width="101.05263157894736" height="70.85714285714286" as="geometry" />
        </mxCell>
        <mxCell id="zq6gwk42By_WQmrwpAdC-206" style="edgeStyle=orthogonalEdgeStyle;rounded=0;orthogonalLoop=1;jettySize=auto;html=1;exitX=0.5;exitY=1;exitDx=0;exitDy=0;entryX=0.5;entryY=0;entryDx=0;entryDy=0;startArrow=none;startFill=0;fontSize=20;endArrow=none;endFill=0;" parent="zq6gwk42By_WQmrwpAdC-168" source="zq6gwk42By_WQmrwpAdC-170" target="zq6gwk42By_WQmrwpAdC-171" edge="1">
          <mxGeometry relative="1" as="geometry" />
        </mxCell>
        <mxCell id="zq6gwk42By_WQmrwpAdC-170" value="0" style="ellipse;whiteSpace=wrap;html=1;aspect=fixed;fillColor=#f8cecc;strokeColor=#b85450;fontSize=20;" parent="zq6gwk42By_WQmrwpAdC-168" vertex="1">
          <mxGeometry x="22.637518796992474" y="15.086315789473666" width="25" height="25" as="geometry" />
        </mxCell>
        <mxCell id="zq6gwk42By_WQmrwpAdC-171" value="1" style="ellipse;whiteSpace=wrap;html=1;aspect=fixed;fillColor=#f8cecc;strokeColor=#b85450;fontSize=20;" parent="zq6gwk42By_WQmrwpAdC-168" vertex="1">
          <mxGeometry x="22.637518796992474" y="59.37203007518796" width="25" height="25" as="geometry" />
        </mxCell>
        <mxCell id="ntWDkLDmYSj48sWUWbAF-16" style="edgeStyle=orthogonalEdgeStyle;rounded=0;orthogonalLoop=1;jettySize=auto;html=1;exitX=0;exitY=0;exitDx=0;exitDy=0;entryX=1;entryY=0;entryDx=0;entryDy=0;curved=1;" parent="zq6gwk42By_WQmrwpAdC-168" source="zq6gwk42By_WQmrwpAdC-170" target="zq6gwk42By_WQmrwpAdC-170" edge="1">
          <mxGeometry relative="1" as="geometry">
            <Array as="points">
              <mxPoint x="26" y="7" />
              <mxPoint x="44" y="7" />
            </Array>
          </mxGeometry>
        </mxCell>
        <mxCell id="ntWDkLDmYSj48sWUWbAF-17" style="edgeStyle=orthogonalEdgeStyle;rounded=0;orthogonalLoop=1;jettySize=auto;html=1;exitX=1;exitY=1;exitDx=0;exitDy=0;entryX=0;entryY=1;entryDx=0;entryDy=0;curved=1;" parent="zq6gwk42By_WQmrwpAdC-168" source="zq6gwk42By_WQmrwpAdC-171" target="zq6gwk42By_WQmrwpAdC-171" edge="1">
          <mxGeometry relative="1" as="geometry">
            <Array as="points">
              <mxPoint x="44" y="97" />
              <mxPoint x="26" y="97" />
            </Array>
          </mxGeometry>
        </mxCell>
        <mxCell id="zq6gwk42By_WQmrwpAdC-172" value="" style="group" parent="zq6gwk42By_WQmrwpAdC-167" vertex="1" connectable="0">
          <mxGeometry y="203.71428571428575" width="70.85714285714289" height="101.05263157894731" as="geometry" />
        </mxCell>
        <mxCell id="zq6gwk42By_WQmrwpAdC-173" value="" style="ellipse;whiteSpace=wrap;html=1;rotation=-90;fillColor=#dae8fc;strokeColor=#6c8ebf;" parent="zq6gwk42By_WQmrwpAdC-172" vertex="1">
          <mxGeometry x="-15.097744360902226" y="15.097744360902226" width="101.05263157894736" height="70.85714285714286" as="geometry" />
        </mxCell>
        <mxCell id="ntWDkLDmYSj48sWUWbAF-1" style="edgeStyle=orthogonalEdgeStyle;rounded=0;orthogonalLoop=1;jettySize=auto;html=1;exitX=0.5;exitY=1;exitDx=0;exitDy=0;entryX=0.5;entryY=0;entryDx=0;entryDy=0;endArrow=none;endFill=0;" parent="zq6gwk42By_WQmrwpAdC-172" source="zq6gwk42By_WQmrwpAdC-174" target="zq6gwk42By_WQmrwpAdC-175" edge="1">
          <mxGeometry relative="1" as="geometry" />
        </mxCell>
        <mxCell id="zq6gwk42By_WQmrwpAdC-174" value="4" style="ellipse;whiteSpace=wrap;html=1;aspect=fixed;fillColor=#f8cecc;strokeColor=#b85450;fontSize=20;" parent="zq6gwk42By_WQmrwpAdC-172" vertex="1">
          <mxGeometry x="22.637518796992516" y="15.086315789473641" width="25" height="25" as="geometry" />
        </mxCell>
        <mxCell id="zq6gwk42By_WQmrwpAdC-175" value="5" style="ellipse;whiteSpace=wrap;html=1;aspect=fixed;fillColor=#f8cecc;strokeColor=#b85450;fontSize=20;" parent="zq6gwk42By_WQmrwpAdC-172" vertex="1">
          <mxGeometry x="22.637518796992516" y="59.372030075187894" width="25" height="25" as="geometry" />
        </mxCell>
        <mxCell id="ntWDkLDmYSj48sWUWbAF-8" style="edgeStyle=orthogonalEdgeStyle;rounded=0;orthogonalLoop=1;jettySize=auto;html=1;exitX=1;exitY=1;exitDx=0;exitDy=0;entryX=0;entryY=1;entryDx=0;entryDy=0;curved=1;" parent="zq6gwk42By_WQmrwpAdC-172" source="zq6gwk42By_WQmrwpAdC-175" target="zq6gwk42By_WQmrwpAdC-175" edge="1">
          <mxGeometry relative="1" as="geometry">
            <Array as="points">
              <mxPoint x="44" y="94" />
              <mxPoint x="26" y="94" />
            </Array>
            <mxPoint x="44.129999999999995" y="84.37571428571425" as="sourcePoint" />
            <mxPoint x="26.129999999999995" y="84.37571428571425" as="targetPoint" />
          </mxGeometry>
        </mxCell>
        <mxCell id="ntWDkLDmYSj48sWUWbAF-9" style="edgeStyle=orthogonalEdgeStyle;rounded=0;orthogonalLoop=1;jettySize=auto;html=1;exitX=0;exitY=0;exitDx=0;exitDy=0;entryX=1;entryY=0;entryDx=0;entryDy=0;curved=1;" parent="zq6gwk42By_WQmrwpAdC-172" source="zq6gwk42By_WQmrwpAdC-174" target="zq6gwk42By_WQmrwpAdC-174" edge="1">
          <mxGeometry relative="1" as="geometry">
            <Array as="points">
              <mxPoint x="26" y="4" />
              <mxPoint x="44" y="4" />
            </Array>
          </mxGeometry>
        </mxCell>
        <mxCell id="zq6gwk42By_WQmrwpAdC-219" value="" style="group" parent="zq6gwk42By_WQmrwpAdC-291" vertex="1" connectable="0">
          <mxGeometry x="572" y="30" width="243.84962406015035" height="310" as="geometry" />
        </mxCell>
        <mxCell id="zq6gwk42By_WQmrwpAdC-220" value="" style="group" parent="zq6gwk42By_WQmrwpAdC-219" vertex="1" connectable="0">
          <mxGeometry x="0.36090225563913236" y="103.6736842105263" width="243.48872180451121" height="101.8526315789474" as="geometry" />
        </mxCell>
        <mxCell id="zq6gwk42By_WQmrwpAdC-221" value="" style="group" parent="zq6gwk42By_WQmrwpAdC-220" vertex="1" connectable="0">
          <mxGeometry y="0.8000000000000256" width="70.85714285714286" height="101.05263157894737" as="geometry" />
        </mxCell>
        <mxCell id="zq6gwk42By_WQmrwpAdC-222" value="" style="ellipse;whiteSpace=wrap;html=1;rotation=-90;fillColor=#dae8fc;strokeColor=#6c8ebf;" parent="zq6gwk42By_WQmrwpAdC-221" vertex="1">
          <mxGeometry x="-15.097744360902265" y="15.097744360902254" width="101.05263157894736" height="70.85714285714286" as="geometry" />
        </mxCell>
        <mxCell id="zq6gwk42By_WQmrwpAdC-223" style="edgeStyle=orthogonalEdgeStyle;rounded=0;orthogonalLoop=1;jettySize=auto;html=1;exitX=0.5;exitY=1;exitDx=0;exitDy=0;entryX=0.5;entryY=0;entryDx=0;entryDy=0;startArrow=none;startFill=0;fontSize=20;endArrow=none;endFill=0;" parent="zq6gwk42By_WQmrwpAdC-221" source="zq6gwk42By_WQmrwpAdC-224" target="zq6gwk42By_WQmrwpAdC-225" edge="1">
          <mxGeometry relative="1" as="geometry" />
        </mxCell>
        <mxCell id="zq6gwk42By_WQmrwpAdC-224" value="6" style="ellipse;whiteSpace=wrap;html=1;aspect=fixed;fillColor=#f8cecc;strokeColor=#b85450;fontSize=20;" parent="zq6gwk42By_WQmrwpAdC-221" vertex="1">
          <mxGeometry x="22.637518796992467" y="16.370601503759385" width="25" height="25" as="geometry" />
        </mxCell>
        <mxCell id="zq6gwk42By_WQmrwpAdC-225" value="7" style="ellipse;whiteSpace=wrap;html=1;aspect=fixed;fillColor=#f8cecc;strokeColor=#b85450;fontSize=20;" parent="zq6gwk42By_WQmrwpAdC-221" vertex="1">
          <mxGeometry x="22.637518796992467" y="59.37203007518798" width="25" height="25" as="geometry" />
        </mxCell>
        <mxCell id="ntWDkLDmYSj48sWUWbAF-24" style="edgeStyle=orthogonalEdgeStyle;rounded=0;orthogonalLoop=1;jettySize=auto;html=1;exitX=0;exitY=0;exitDx=0;exitDy=0;entryX=1;entryY=0;entryDx=0;entryDy=0;curved=1;" parent="zq6gwk42By_WQmrwpAdC-221" source="zq6gwk42By_WQmrwpAdC-224" target="zq6gwk42By_WQmrwpAdC-224" edge="1">
          <mxGeometry relative="1" as="geometry">
            <Array as="points">
              <mxPoint x="26" y="6" />
              <mxPoint x="44" y="6" />
            </Array>
          </mxGeometry>
        </mxCell>
        <mxCell id="ntWDkLDmYSj48sWUWbAF-25" style="edgeStyle=orthogonalEdgeStyle;rounded=0;orthogonalLoop=1;jettySize=auto;html=1;exitX=1;exitY=1;exitDx=0;exitDy=0;entryX=0;entryY=1;entryDx=0;entryDy=0;curved=1;" parent="zq6gwk42By_WQmrwpAdC-221" source="zq6gwk42By_WQmrwpAdC-225" target="zq6gwk42By_WQmrwpAdC-225" edge="1">
          <mxGeometry relative="1" as="geometry">
            <Array as="points">
              <mxPoint x="44" y="96" />
              <mxPoint x="26" y="96" />
            </Array>
          </mxGeometry>
        </mxCell>
        <mxCell id="zq6gwk42By_WQmrwpAdC-228" value="" style="group" parent="zq6gwk42By_WQmrwpAdC-220" vertex="1" connectable="0">
          <mxGeometry x="172.63157894736838" width="70.85714285714286" height="101.05263157894737" as="geometry" />
        </mxCell>
        <mxCell id="zq6gwk42By_WQmrwpAdC-229" value="" style="ellipse;whiteSpace=wrap;html=1;rotation=-90;fillColor=#dae8fc;strokeColor=#6c8ebf;" parent="zq6gwk42By_WQmrwpAdC-228" vertex="1">
          <mxGeometry x="-15.097744360902254" y="15.097744360902283" width="101.05263157894736" height="70.85714285714286" as="geometry" />
        </mxCell>
        <mxCell id="ntWDkLDmYSj48sWUWbAF-20" style="edgeStyle=orthogonalEdgeStyle;rounded=0;orthogonalLoop=1;jettySize=auto;html=1;exitX=0.5;exitY=1;exitDx=0;exitDy=0;entryX=0.5;entryY=0;entryDx=0;entryDy=0;endArrow=none;endFill=0;" parent="zq6gwk42By_WQmrwpAdC-228" source="zq6gwk42By_WQmrwpAdC-231" target="zq6gwk42By_WQmrwpAdC-232" edge="1">
          <mxGeometry relative="1" as="geometry" />
        </mxCell>
        <mxCell id="zq6gwk42By_WQmrwpAdC-231" value="2" style="ellipse;whiteSpace=wrap;html=1;aspect=fixed;fillColor=#f8cecc;strokeColor=#b85450;fontSize=20;" parent="zq6gwk42By_WQmrwpAdC-228" vertex="1">
          <mxGeometry x="22.637518796992516" y="15.086315789473712" width="25" height="25" as="geometry" />
        </mxCell>
        <mxCell id="zq6gwk42By_WQmrwpAdC-232" value="3" style="ellipse;whiteSpace=wrap;html=1;aspect=fixed;fillColor=#f8cecc;strokeColor=#b85450;fontSize=20;" parent="zq6gwk42By_WQmrwpAdC-228" vertex="1">
          <mxGeometry x="22.637518796992516" y="59.37203007518801" width="25" height="25" as="geometry" />
        </mxCell>
        <mxCell id="ntWDkLDmYSj48sWUWbAF-21" style="edgeStyle=orthogonalEdgeStyle;rounded=0;orthogonalLoop=1;jettySize=auto;html=1;exitX=0;exitY=0;exitDx=0;exitDy=0;entryX=1;entryY=0;entryDx=0;entryDy=0;curved=1;" parent="zq6gwk42By_WQmrwpAdC-228" source="zq6gwk42By_WQmrwpAdC-231" target="zq6gwk42By_WQmrwpAdC-231" edge="1">
          <mxGeometry relative="1" as="geometry">
            <Array as="points">
              <mxPoint x="26" y="6" />
              <mxPoint x="44" y="6" />
            </Array>
          </mxGeometry>
        </mxCell>
        <mxCell id="ntWDkLDmYSj48sWUWbAF-22" style="edgeStyle=orthogonalEdgeStyle;rounded=0;orthogonalLoop=1;jettySize=auto;html=1;exitX=1;exitY=1;exitDx=0;exitDy=0;entryX=0;entryY=1;entryDx=0;entryDy=0;curved=1;" parent="zq6gwk42By_WQmrwpAdC-228" source="zq6gwk42By_WQmrwpAdC-232" target="zq6gwk42By_WQmrwpAdC-232" edge="1">
          <mxGeometry relative="1" as="geometry">
            <Array as="points">
              <mxPoint x="44" y="96" />
              <mxPoint x="26" y="96" />
            </Array>
          </mxGeometry>
        </mxCell>
        <mxCell id="zq6gwk42By_WQmrwpAdC-235" value="" style="group" parent="zq6gwk42By_WQmrwpAdC-219" vertex="1" connectable="0">
          <mxGeometry x="86.6766917293233" y="2.616541353383475" width="70.85714285714289" height="304.76691729323306" as="geometry" />
        </mxCell>
        <mxCell id="zq6gwk42By_WQmrwpAdC-236" value="" style="group" parent="zq6gwk42By_WQmrwpAdC-235" vertex="1" connectable="0">
          <mxGeometry width="70.85714285714288" height="101.05263157894737" as="geometry" />
        </mxCell>
        <mxCell id="zq6gwk42By_WQmrwpAdC-237" value="" style="ellipse;whiteSpace=wrap;html=1;rotation=-90;fillColor=#dae8fc;strokeColor=#6c8ebf;" parent="zq6gwk42By_WQmrwpAdC-236" vertex="1">
          <mxGeometry x="-15.097744360902254" y="15.09774436090224" width="101.05263157894736" height="70.85714285714286" as="geometry" />
        </mxCell>
        <mxCell id="zq6gwk42By_WQmrwpAdC-238" style="edgeStyle=orthogonalEdgeStyle;rounded=0;orthogonalLoop=1;jettySize=auto;html=1;exitX=0.5;exitY=1;exitDx=0;exitDy=0;entryX=0.5;entryY=0;entryDx=0;entryDy=0;startArrow=none;startFill=0;fontSize=20;endArrow=none;endFill=0;" parent="zq6gwk42By_WQmrwpAdC-236" source="zq6gwk42By_WQmrwpAdC-239" target="zq6gwk42By_WQmrwpAdC-240" edge="1">
          <mxGeometry relative="1" as="geometry" />
        </mxCell>
        <mxCell id="zq6gwk42By_WQmrwpAdC-239" value="0" style="ellipse;whiteSpace=wrap;html=1;aspect=fixed;fillColor=#f8cecc;strokeColor=#b85450;fontSize=20;" parent="zq6gwk42By_WQmrwpAdC-236" vertex="1">
          <mxGeometry x="22.72" y="15.17" width="24.83" height="24.83" as="geometry" />
        </mxCell>
        <mxCell id="zq6gwk42By_WQmrwpAdC-240" value="1" style="ellipse;whiteSpace=wrap;html=1;aspect=fixed;fillColor=#f8cecc;strokeColor=#b85450;fontSize=20;" parent="zq6gwk42By_WQmrwpAdC-236" vertex="1">
          <mxGeometry x="22.637518796992474" y="59.37203007518796" width="25" height="25" as="geometry" />
        </mxCell>
        <mxCell id="ntWDkLDmYSj48sWUWbAF-26" style="edgeStyle=orthogonalEdgeStyle;rounded=0;orthogonalLoop=1;jettySize=auto;html=1;exitX=0;exitY=0;exitDx=0;exitDy=0;entryX=1;entryY=0;entryDx=0;entryDy=0;curved=1;" parent="zq6gwk42By_WQmrwpAdC-236" source="zq6gwk42By_WQmrwpAdC-239" target="zq6gwk42By_WQmrwpAdC-239" edge="1">
          <mxGeometry relative="1" as="geometry">
            <Array as="points">
              <mxPoint x="26" y="7" />
              <mxPoint x="44" y="7" />
            </Array>
          </mxGeometry>
        </mxCell>
        <mxCell id="ntWDkLDmYSj48sWUWbAF-27" style="edgeStyle=orthogonalEdgeStyle;rounded=0;orthogonalLoop=1;jettySize=auto;html=1;exitX=1;exitY=1;exitDx=0;exitDy=0;entryX=0;entryY=1;entryDx=0;entryDy=0;curved=1;" parent="zq6gwk42By_WQmrwpAdC-236" source="zq6gwk42By_WQmrwpAdC-240" target="zq6gwk42By_WQmrwpAdC-240" edge="1">
          <mxGeometry relative="1" as="geometry">
            <Array as="points">
              <mxPoint x="44" y="97" />
              <mxPoint x="26" y="97" />
            </Array>
          </mxGeometry>
        </mxCell>
        <mxCell id="zq6gwk42By_WQmrwpAdC-243" value="" style="group" parent="zq6gwk42By_WQmrwpAdC-235" vertex="1" connectable="0">
          <mxGeometry y="203.71428571428575" width="70.85714285714289" height="101.05263157894731" as="geometry" />
        </mxCell>
        <mxCell id="zq6gwk42By_WQmrwpAdC-244" value="" style="ellipse;whiteSpace=wrap;html=1;rotation=-90;fillColor=#dae8fc;strokeColor=#6c8ebf;" parent="zq6gwk42By_WQmrwpAdC-243" vertex="1">
          <mxGeometry x="-15.097744360902226" y="15.097744360902226" width="101.05263157894736" height="70.85714285714286" as="geometry" />
        </mxCell>
        <mxCell id="zq6gwk42By_WQmrwpAdC-245" value="4" style="ellipse;whiteSpace=wrap;html=1;aspect=fixed;fillColor=#f8cecc;strokeColor=#b85450;fontSize=20;" parent="zq6gwk42By_WQmrwpAdC-243" vertex="1">
          <mxGeometry x="22.637518796992516" y="15.086315789473641" width="25" height="25" as="geometry" />
        </mxCell>
        <mxCell id="zq6gwk42By_WQmrwpAdC-246" value="5" style="ellipse;whiteSpace=wrap;html=1;aspect=fixed;fillColor=#f8cecc;strokeColor=#b85450;fontSize=20;" parent="zq6gwk42By_WQmrwpAdC-243" vertex="1">
          <mxGeometry x="22.637518796992516" y="59.372030075187894" width="25" height="25" as="geometry" />
        </mxCell>
        <mxCell id="ntWDkLDmYSj48sWUWbAF-23" style="edgeStyle=orthogonalEdgeStyle;rounded=0;orthogonalLoop=1;jettySize=auto;html=1;exitX=0;exitY=0;exitDx=0;exitDy=0;entryX=1;entryY=0;entryDx=0;entryDy=0;curved=1;" parent="zq6gwk42By_WQmrwpAdC-243" source="zq6gwk42By_WQmrwpAdC-245" target="zq6gwk42By_WQmrwpAdC-245" edge="1">
          <mxGeometry relative="1" as="geometry">
            <Array as="points">
              <mxPoint x="26" y="4" />
              <mxPoint x="44" y="4" />
            </Array>
          </mxGeometry>
        </mxCell>
        <mxCell id="zq6gwk42By_WQmrwpAdC-251" value="$$\mathcal{G}(\mathbf{B}_\text{in})\text{: Common in-link}$$&amp;nbsp;" style="text;html=1;strokeColor=none;fillColor=none;align=center;verticalAlign=middle;whiteSpace=wrap;rounded=0;fontSize=20;" parent="zq6gwk42By_WQmrwpAdC-291" vertex="1">
          <mxGeometry x="310.9200000000001" width="194" height="30" as="geometry" />
        </mxCell>
        <mxCell id="zq6gwk42By_WQmrwpAdC-253" value="$$\mathcal{G}(\mathbf{C}_\text{out}):\text{ Common out-link}$$&amp;nbsp;" style="text;html=1;strokeColor=none;fillColor=none;align=center;verticalAlign=middle;whiteSpace=wrap;rounded=0;fontSize=20;" parent="zq6gwk42By_WQmrwpAdC-291" vertex="1">
          <mxGeometry x="596.9200000000002" width="194" height="30" as="geometry" />
        </mxCell>
        <mxCell id="zq6gwk42By_WQmrwpAdC-255" value="" style="group" parent="zq6gwk42By_WQmrwpAdC-291" vertex="1" connectable="0">
          <mxGeometry x="858" y="30" width="243.84962406015035" height="310" as="geometry" />
        </mxCell>
        <mxCell id="zq6gwk42By_WQmrwpAdC-256" value="" style="group" parent="zq6gwk42By_WQmrwpAdC-255" vertex="1" connectable="0">
          <mxGeometry x="0.36090225563913236" y="103.6736842105263" width="243.48872180451121" height="101.8526315789474" as="geometry" />
        </mxCell>
        <mxCell id="zq6gwk42By_WQmrwpAdC-257" value="" style="group" parent="zq6gwk42By_WQmrwpAdC-256" vertex="1" connectable="0">
          <mxGeometry y="0.8000000000000256" width="70.85714285714286" height="101.05263157894737" as="geometry" />
        </mxCell>
        <mxCell id="zq6gwk42By_WQmrwpAdC-258" value="" style="ellipse;whiteSpace=wrap;html=1;rotation=-90;fillColor=#dae8fc;strokeColor=#6c8ebf;" parent="zq6gwk42By_WQmrwpAdC-257" vertex="1">
          <mxGeometry x="-15.097744360902265" y="15.097744360902254" width="101.05263157894736" height="70.85714285714286" as="geometry" />
        </mxCell>
        <mxCell id="zq6gwk42By_WQmrwpAdC-259" value="6" style="ellipse;whiteSpace=wrap;html=1;aspect=fixed;fillColor=#f8cecc;strokeColor=#b85450;fontSize=20;" parent="zq6gwk42By_WQmrwpAdC-257" vertex="1">
          <mxGeometry x="22.637518796992467" y="16.370601503759385" width="25" height="25" as="geometry" />
        </mxCell>
        <mxCell id="zq6gwk42By_WQmrwpAdC-260" value="7" style="ellipse;whiteSpace=wrap;html=1;aspect=fixed;fillColor=#f8cecc;strokeColor=#b85450;fontSize=20;" parent="zq6gwk42By_WQmrwpAdC-257" vertex="1">
          <mxGeometry x="22.637518796992467" y="59.37203007518798" width="25" height="25" as="geometry" />
        </mxCell>
        <mxCell id="zq6gwk42By_WQmrwpAdC-261" value="" style="group" parent="zq6gwk42By_WQmrwpAdC-256" vertex="1" connectable="0">
          <mxGeometry x="172.63157894736838" width="70.85714285714286" height="101.05263157894737" as="geometry" />
        </mxCell>
        <mxCell id="zq6gwk42By_WQmrwpAdC-262" value="" style="ellipse;whiteSpace=wrap;html=1;rotation=-90;fillColor=#dae8fc;strokeColor=#6c8ebf;" parent="zq6gwk42By_WQmrwpAdC-261" vertex="1">
          <mxGeometry x="-15.097744360902254" y="15.097744360902283" width="101.05263157894736" height="70.85714285714286" as="geometry" />
        </mxCell>
        <mxCell id="zq6gwk42By_WQmrwpAdC-263" value="2" style="ellipse;whiteSpace=wrap;html=1;aspect=fixed;fillColor=#f8cecc;strokeColor=#b85450;fontSize=20;" parent="zq6gwk42By_WQmrwpAdC-261" vertex="1">
          <mxGeometry x="22.637518796992516" y="15.086315789473712" width="25" height="25" as="geometry" />
        </mxCell>
        <mxCell id="zq6gwk42By_WQmrwpAdC-264" value="3" style="ellipse;whiteSpace=wrap;html=1;aspect=fixed;fillColor=#f8cecc;strokeColor=#b85450;fontSize=20;" parent="zq6gwk42By_WQmrwpAdC-261" vertex="1">
          <mxGeometry x="22.637518796992516" y="59.37203007518801" width="25" height="25" as="geometry" />
        </mxCell>
        <mxCell id="zq6gwk42By_WQmrwpAdC-265" value="" style="group" parent="zq6gwk42By_WQmrwpAdC-255" vertex="1" connectable="0">
          <mxGeometry x="86.6766917293233" y="2.616541353383475" width="70.85714285714289" height="304.76691729323306" as="geometry" />
        </mxCell>
        <mxCell id="zq6gwk42By_WQmrwpAdC-266" value="" style="group" parent="zq6gwk42By_WQmrwpAdC-265" vertex="1" connectable="0">
          <mxGeometry width="70.85714285714288" height="101.05263157894737" as="geometry" />
        </mxCell>
        <mxCell id="zq6gwk42By_WQmrwpAdC-267" value="" style="ellipse;whiteSpace=wrap;html=1;rotation=-90;fillColor=#dae8fc;strokeColor=#6c8ebf;" parent="zq6gwk42By_WQmrwpAdC-266" vertex="1">
          <mxGeometry x="-15.097744360902254" y="15.09774436090224" width="101.05263157894736" height="70.85714285714286" as="geometry" />
        </mxCell>
        <mxCell id="zq6gwk42By_WQmrwpAdC-268" value="0" style="ellipse;whiteSpace=wrap;html=1;aspect=fixed;fillColor=#f8cecc;strokeColor=#b85450;fontSize=20;" parent="zq6gwk42By_WQmrwpAdC-266" vertex="1">
          <mxGeometry x="22.637518796992474" y="15.086315789473666" width="25" height="25" as="geometry" />
        </mxCell>
        <mxCell id="zq6gwk42By_WQmrwpAdC-269" value="1" style="ellipse;whiteSpace=wrap;html=1;aspect=fixed;fillColor=#f8cecc;strokeColor=#b85450;fontSize=20;" parent="zq6gwk42By_WQmrwpAdC-266" vertex="1">
          <mxGeometry x="22.637518796992474" y="59.37203007518796" width="25" height="25" as="geometry" />
        </mxCell>
        <mxCell id="zq6gwk42By_WQmrwpAdC-270" value="" style="group" parent="zq6gwk42By_WQmrwpAdC-265" vertex="1" connectable="0">
          <mxGeometry y="203.71428571428575" width="70.85714285714289" height="101.05263157894731" as="geometry" />
        </mxCell>
        <mxCell id="zq6gwk42By_WQmrwpAdC-271" value="" style="ellipse;whiteSpace=wrap;html=1;rotation=-90;fillColor=#dae8fc;strokeColor=#6c8ebf;" parent="zq6gwk42By_WQmrwpAdC-270" vertex="1">
          <mxGeometry x="-15.097744360902226" y="15.097744360902226" width="101.05263157894736" height="70.85714285714286" as="geometry" />
        </mxCell>
        <mxCell id="zq6gwk42By_WQmrwpAdC-272" value="4" style="ellipse;whiteSpace=wrap;html=1;aspect=fixed;fillColor=#f8cecc;strokeColor=#b85450;fontSize=20;" parent="zq6gwk42By_WQmrwpAdC-270" vertex="1">
          <mxGeometry x="22.637518796992516" y="15.086315789473641" width="25" height="25" as="geometry" />
        </mxCell>
        <mxCell id="zq6gwk42By_WQmrwpAdC-273" value="5" style="ellipse;whiteSpace=wrap;html=1;aspect=fixed;fillColor=#f8cecc;strokeColor=#b85450;fontSize=20;" parent="zq6gwk42By_WQmrwpAdC-270" vertex="1">
          <mxGeometry x="22.637518796992516" y="59.372030075187894" width="25" height="25" as="geometry" />
        </mxCell>
        <mxCell id="zq6gwk42By_WQmrwpAdC-274" style="rounded=0;orthogonalLoop=1;jettySize=auto;html=1;exitX=1;exitY=0;exitDx=0;exitDy=0;entryX=0;entryY=0.5;entryDx=0;entryDy=0;" parent="zq6gwk42By_WQmrwpAdC-255" source="zq6gwk42By_WQmrwpAdC-259" target="zq6gwk42By_WQmrwpAdC-268" edge="1">
          <mxGeometry relative="1" as="geometry" />
        </mxCell>
        <mxCell id="zq6gwk42By_WQmrwpAdC-275" style="rounded=0;orthogonalLoop=1;jettySize=auto;html=1;exitX=1;exitY=0;exitDx=0;exitDy=0;entryX=0;entryY=0.5;entryDx=0;entryDy=0;" parent="zq6gwk42By_WQmrwpAdC-255" source="zq6gwk42By_WQmrwpAdC-260" target="zq6gwk42By_WQmrwpAdC-268" edge="1">
          <mxGeometry relative="1" as="geometry" />
        </mxCell>
        <mxCell id="zq6gwk42By_WQmrwpAdC-276" style="rounded=0;orthogonalLoop=1;jettySize=auto;html=1;exitX=1;exitY=0;exitDx=0;exitDy=0;entryX=0;entryY=0.5;entryDx=0;entryDy=0;" parent="zq6gwk42By_WQmrwpAdC-255" source="zq6gwk42By_WQmrwpAdC-260" target="zq6gwk42By_WQmrwpAdC-269" edge="1">
          <mxGeometry relative="1" as="geometry" />
        </mxCell>
        <mxCell id="zq6gwk42By_WQmrwpAdC-277" style="rounded=0;orthogonalLoop=1;jettySize=auto;html=1;exitX=1;exitY=1;exitDx=0;exitDy=0;entryX=0;entryY=0;entryDx=0;entryDy=0;" parent="zq6gwk42By_WQmrwpAdC-255" source="zq6gwk42By_WQmrwpAdC-268" target="zq6gwk42By_WQmrwpAdC-263" edge="1">
          <mxGeometry relative="1" as="geometry" />
        </mxCell>
        <mxCell id="zq6gwk42By_WQmrwpAdC-278" style="rounded=0;orthogonalLoop=1;jettySize=auto;html=1;exitX=1;exitY=1;exitDx=0;exitDy=0;entryX=0;entryY=0;entryDx=0;entryDy=0;" parent="zq6gwk42By_WQmrwpAdC-255" source="zq6gwk42By_WQmrwpAdC-268" target="zq6gwk42By_WQmrwpAdC-264" edge="1">
          <mxGeometry relative="1" as="geometry" />
        </mxCell>
        <mxCell id="zq6gwk42By_WQmrwpAdC-279" style="rounded=0;orthogonalLoop=1;jettySize=auto;html=1;exitX=1;exitY=1;exitDx=0;exitDy=0;entryX=0;entryY=0;entryDx=0;entryDy=0;" parent="zq6gwk42By_WQmrwpAdC-255" source="zq6gwk42By_WQmrwpAdC-269" target="zq6gwk42By_WQmrwpAdC-264" edge="1">
          <mxGeometry relative="1" as="geometry">
            <mxPoint x="202.1052631578947" y="172.71428571428572" as="targetPoint" />
          </mxGeometry>
        </mxCell>
        <mxCell id="zq6gwk42By_WQmrwpAdC-280" style="rounded=0;orthogonalLoop=1;jettySize=auto;html=1;exitX=0;exitY=1;exitDx=0;exitDy=0;entryX=1;entryY=0;entryDx=0;entryDy=0;strokeColor=#ff2600;strokeWidth=2;dashed=1;" parent="zq6gwk42By_WQmrwpAdC-255" source="zq6gwk42By_WQmrwpAdC-264" target="zq6gwk42By_WQmrwpAdC-273" edge="1">
          <mxGeometry relative="1" as="geometry" />
        </mxCell>
        <mxCell id="zq6gwk42By_WQmrwpAdC-281" style="rounded=0;orthogonalLoop=1;jettySize=auto;html=1;exitX=0;exitY=1;exitDx=0;exitDy=0;entryX=1;entryY=0;entryDx=0;entryDy=0;strokeColor=#000000;strokeWidth=1;" parent="zq6gwk42By_WQmrwpAdC-255" source="zq6gwk42By_WQmrwpAdC-263" target="zq6gwk42By_WQmrwpAdC-272" edge="1">
          <mxGeometry relative="1" as="geometry" />
        </mxCell>
        <mxCell id="zq6gwk42By_WQmrwpAdC-282" style="rounded=0;orthogonalLoop=1;jettySize=auto;html=1;exitX=0;exitY=0;exitDx=0;exitDy=0;entryX=1;entryY=1;entryDx=0;entryDy=0;" parent="zq6gwk42By_WQmrwpAdC-255" source="zq6gwk42By_WQmrwpAdC-272" target="zq6gwk42By_WQmrwpAdC-259" edge="1">
          <mxGeometry relative="1" as="geometry" />
        </mxCell>
        <mxCell id="zq6gwk42By_WQmrwpAdC-283" style="rounded=0;orthogonalLoop=1;jettySize=auto;html=1;exitX=0;exitY=0;exitDx=0;exitDy=0;entryX=1;entryY=1;entryDx=0;entryDy=0;" parent="zq6gwk42By_WQmrwpAdC-255" source="zq6gwk42By_WQmrwpAdC-272" target="zq6gwk42By_WQmrwpAdC-260" edge="1">
          <mxGeometry relative="1" as="geometry" />
        </mxCell>
        <mxCell id="zq6gwk42By_WQmrwpAdC-284" style="rounded=0;orthogonalLoop=1;jettySize=auto;html=1;exitX=0;exitY=0;exitDx=0;exitDy=0;entryX=1;entryY=1;entryDx=0;entryDy=0;" parent="zq6gwk42By_WQmrwpAdC-255" source="zq6gwk42By_WQmrwpAdC-273" target="zq6gwk42By_WQmrwpAdC-260" edge="1">
          <mxGeometry relative="1" as="geometry" />
        </mxCell>
        <mxCell id="zq6gwk42By_WQmrwpAdC-285" style="rounded=0;orthogonalLoop=1;jettySize=auto;html=1;exitX=0;exitY=0;exitDx=0;exitDy=0;entryX=1;entryY=1;entryDx=0;entryDy=0;strokeColor=#ff2600;strokeWidth=2;dashed=1;" parent="zq6gwk42By_WQmrwpAdC-255" source="zq6gwk42By_WQmrwpAdC-273" target="zq6gwk42By_WQmrwpAdC-259" edge="1">
          <mxGeometry relative="1" as="geometry" />
        </mxCell>
        <mxCell id="zq6gwk42By_WQmrwpAdC-286" style="rounded=0;orthogonalLoop=1;jettySize=auto;html=1;exitX=1;exitY=0;exitDx=0;exitDy=0;entryX=0;entryY=0.5;entryDx=0;entryDy=0;strokeColor=#FF0000;strokeWidth=2;dashed=1;" parent="zq6gwk42By_WQmrwpAdC-255" source="zq6gwk42By_WQmrwpAdC-259" target="zq6gwk42By_WQmrwpAdC-269" edge="1">
          <mxGeometry relative="1" as="geometry" />
        </mxCell>
        <mxCell id="zq6gwk42By_WQmrwpAdC-287" style="rounded=0;orthogonalLoop=1;jettySize=auto;html=1;entryX=0;entryY=0;entryDx=0;entryDy=0;strokeColor=#FF0000;strokeWidth=2;exitX=1;exitY=1;exitDx=0;exitDy=0;dashed=1;" parent="zq6gwk42By_WQmrwpAdC-255" source="zq6gwk42By_WQmrwpAdC-269" target="zq6gwk42By_WQmrwpAdC-263" edge="1">
          <mxGeometry relative="1" as="geometry">
            <mxPoint x="147" y="-80" as="sourcePoint" />
          </mxGeometry>
        </mxCell>
        <mxCell id="zq6gwk42By_WQmrwpAdC-289" value="$$\mathcal{G}(\mathbf{Q})$$&amp;nbsp;" style="text;html=1;strokeColor=none;fillColor=none;align=center;verticalAlign=middle;whiteSpace=wrap;rounded=0;fontSize=20;" parent="zq6gwk42By_WQmrwpAdC-293" vertex="1">
          <mxGeometry x="882.9200000000001" width="194" height="30" as="geometry" />
        </mxCell>
        <mxCell id="Caj5VLOJavDtrcs3JnQ8-2" value="" style="rounded=0;whiteSpace=wrap;html=1;strokeColor=none;" vertex="1" parent="1">
          <mxGeometry x="90" y="450" width="1140" height="400" as="geometry" />
        </mxCell>
        <mxCell id="Caj5VLOJavDtrcs3JnQ8-3" value="" style="group" vertex="1" connectable="0" parent="1">
          <mxGeometry x="102.21000000000001" y="480" width="1115.5896240601503" height="340" as="geometry" />
        </mxCell>
        <mxCell id="Caj5VLOJavDtrcs3JnQ8-4" value="" style="group" vertex="1" connectable="0" parent="Caj5VLOJavDtrcs3JnQ8-3">
          <mxGeometry width="1115.5896240601503" height="340" as="geometry" />
        </mxCell>
        <mxCell id="Caj5VLOJavDtrcs3JnQ8-5" value="" style="group" vertex="1" connectable="0" parent="Caj5VLOJavDtrcs3JnQ8-4">
          <mxGeometry y="30" width="243.84962406015035" height="310" as="geometry" />
        </mxCell>
        <mxCell id="Caj5VLOJavDtrcs3JnQ8-6" value="" style="group" vertex="1" connectable="0" parent="Caj5VLOJavDtrcs3JnQ8-5">
          <mxGeometry x="0.36090225563913236" y="103.6736842105263" width="243.48872180451121" height="101.8526315789474" as="geometry" />
        </mxCell>
        <mxCell id="Caj5VLOJavDtrcs3JnQ8-7" value="" style="group" vertex="1" connectable="0" parent="Caj5VLOJavDtrcs3JnQ8-6">
          <mxGeometry y="0.8000000000000256" width="70.85714285714286" height="101.05263157894737" as="geometry" />
        </mxCell>
        <mxCell id="Caj5VLOJavDtrcs3JnQ8-8" value="" style="ellipse;whiteSpace=wrap;html=1;rotation=-90;fillColor=#dae8fc;strokeColor=#6c8ebf;" vertex="1" parent="Caj5VLOJavDtrcs3JnQ8-7">
          <mxGeometry x="-15.097744360902265" y="15.097744360902254" width="101.05263157894736" height="70.85714285714286" as="geometry" />
        </mxCell>
        <mxCell id="Caj5VLOJavDtrcs3JnQ8-9" value="6" style="ellipse;whiteSpace=wrap;html=1;aspect=fixed;fillColor=#f8cecc;strokeColor=#b85450;fontSize=20;" vertex="1" parent="Caj5VLOJavDtrcs3JnQ8-7">
          <mxGeometry x="22.637518796992467" y="16.370601503759385" width="25" height="25" as="geometry" />
        </mxCell>
        <mxCell id="Caj5VLOJavDtrcs3JnQ8-10" value="7" style="ellipse;whiteSpace=wrap;html=1;aspect=fixed;fillColor=#f8cecc;strokeColor=#b85450;fontSize=20;" vertex="1" parent="Caj5VLOJavDtrcs3JnQ8-7">
          <mxGeometry x="22.637518796992467" y="59.37203007518798" width="25" height="25" as="geometry" />
        </mxCell>
        <mxCell id="Caj5VLOJavDtrcs3JnQ8-11" value="" style="group" vertex="1" connectable="0" parent="Caj5VLOJavDtrcs3JnQ8-6">
          <mxGeometry x="172.63157894736838" width="70.85714285714286" height="101.05263157894737" as="geometry" />
        </mxCell>
        <mxCell id="Caj5VLOJavDtrcs3JnQ8-12" value="" style="ellipse;whiteSpace=wrap;html=1;rotation=-90;fillColor=#dae8fc;strokeColor=#6c8ebf;" vertex="1" parent="Caj5VLOJavDtrcs3JnQ8-11">
          <mxGeometry x="-15.097744360902254" y="15.097744360902283" width="101.05263157894736" height="70.85714285714286" as="geometry" />
        </mxCell>
        <mxCell id="Caj5VLOJavDtrcs3JnQ8-13" value="2" style="ellipse;whiteSpace=wrap;html=1;aspect=fixed;fillColor=#f8cecc;strokeColor=#b85450;fontSize=20;" vertex="1" parent="Caj5VLOJavDtrcs3JnQ8-11">
          <mxGeometry x="22.637518796992516" y="15.086315789473712" width="25" height="25" as="geometry" />
        </mxCell>
        <mxCell id="Caj5VLOJavDtrcs3JnQ8-14" value="3" style="ellipse;whiteSpace=wrap;html=1;aspect=fixed;fillColor=#f8cecc;strokeColor=#b85450;fontSize=20;" vertex="1" parent="Caj5VLOJavDtrcs3JnQ8-11">
          <mxGeometry x="22.637518796992516" y="59.37203007518801" width="25" height="25" as="geometry" />
        </mxCell>
        <mxCell id="Caj5VLOJavDtrcs3JnQ8-15" value="" style="group" vertex="1" connectable="0" parent="Caj5VLOJavDtrcs3JnQ8-5">
          <mxGeometry x="86.6766917293233" y="2.616541353383475" width="70.85714285714289" height="304.76691729323306" as="geometry" />
        </mxCell>
        <mxCell id="Caj5VLOJavDtrcs3JnQ8-16" value="" style="group" vertex="1" connectable="0" parent="Caj5VLOJavDtrcs3JnQ8-15">
          <mxGeometry width="70.85714285714288" height="101.05263157894737" as="geometry" />
        </mxCell>
        <mxCell id="Caj5VLOJavDtrcs3JnQ8-17" value="" style="ellipse;whiteSpace=wrap;html=1;rotation=-90;fillColor=#dae8fc;strokeColor=#6c8ebf;" vertex="1" parent="Caj5VLOJavDtrcs3JnQ8-16">
          <mxGeometry x="-15.097744360902254" y="15.09774436090224" width="101.05263157894736" height="70.85714285714286" as="geometry" />
        </mxCell>
        <mxCell id="Caj5VLOJavDtrcs3JnQ8-18" value="0" style="ellipse;whiteSpace=wrap;html=1;aspect=fixed;fillColor=#f8cecc;strokeColor=#b85450;fontSize=20;" vertex="1" parent="Caj5VLOJavDtrcs3JnQ8-16">
          <mxGeometry x="22.637518796992474" y="15.086315789473666" width="25" height="25" as="geometry" />
        </mxCell>
        <mxCell id="Caj5VLOJavDtrcs3JnQ8-19" value="1" style="ellipse;whiteSpace=wrap;html=1;aspect=fixed;fillColor=#f8cecc;strokeColor=#b85450;fontSize=20;" vertex="1" parent="Caj5VLOJavDtrcs3JnQ8-16">
          <mxGeometry x="22.637518796992474" y="59.37203007518796" width="25" height="25" as="geometry" />
        </mxCell>
        <mxCell id="Caj5VLOJavDtrcs3JnQ8-20" value="" style="group" vertex="1" connectable="0" parent="Caj5VLOJavDtrcs3JnQ8-15">
          <mxGeometry y="203.71428571428575" width="70.85714285714289" height="101.05263157894731" as="geometry" />
        </mxCell>
        <mxCell id="Caj5VLOJavDtrcs3JnQ8-21" value="" style="ellipse;whiteSpace=wrap;html=1;rotation=-90;fillColor=#dae8fc;strokeColor=#6c8ebf;" vertex="1" parent="Caj5VLOJavDtrcs3JnQ8-20">
          <mxGeometry x="-15.097744360902226" y="15.097744360902226" width="101.05263157894736" height="70.85714285714286" as="geometry" />
        </mxCell>
        <mxCell id="Caj5VLOJavDtrcs3JnQ8-22" value="4" style="ellipse;whiteSpace=wrap;html=1;aspect=fixed;fillColor=#f8cecc;strokeColor=#b85450;fontSize=20;" vertex="1" parent="Caj5VLOJavDtrcs3JnQ8-20">
          <mxGeometry x="22.637518796992516" y="15.086315789473641" width="25" height="25" as="geometry" />
        </mxCell>
        <mxCell id="Caj5VLOJavDtrcs3JnQ8-23" value="5" style="ellipse;whiteSpace=wrap;html=1;aspect=fixed;fillColor=#f8cecc;strokeColor=#b85450;fontSize=20;" vertex="1" parent="Caj5VLOJavDtrcs3JnQ8-20">
          <mxGeometry x="22.637518796992516" y="59.372030075187894" width="25" height="25" as="geometry" />
        </mxCell>
        <mxCell id="Caj5VLOJavDtrcs3JnQ8-24" style="rounded=0;orthogonalLoop=1;jettySize=auto;html=1;exitX=1;exitY=0;exitDx=0;exitDy=0;entryX=0;entryY=0.5;entryDx=0;entryDy=0;" edge="1" parent="Caj5VLOJavDtrcs3JnQ8-5" source="Caj5VLOJavDtrcs3JnQ8-9" target="Caj5VLOJavDtrcs3JnQ8-18">
          <mxGeometry relative="1" as="geometry" />
        </mxCell>
        <mxCell id="Caj5VLOJavDtrcs3JnQ8-25" style="rounded=0;orthogonalLoop=1;jettySize=auto;html=1;exitX=1;exitY=0;exitDx=0;exitDy=0;entryX=0;entryY=0.5;entryDx=0;entryDy=0;" edge="1" parent="Caj5VLOJavDtrcs3JnQ8-5" source="Caj5VLOJavDtrcs3JnQ8-10" target="Caj5VLOJavDtrcs3JnQ8-18">
          <mxGeometry relative="1" as="geometry" />
        </mxCell>
        <mxCell id="Caj5VLOJavDtrcs3JnQ8-26" style="rounded=0;orthogonalLoop=1;jettySize=auto;html=1;exitX=1;exitY=0;exitDx=0;exitDy=0;entryX=0;entryY=0.5;entryDx=0;entryDy=0;" edge="1" parent="Caj5VLOJavDtrcs3JnQ8-5" source="Caj5VLOJavDtrcs3JnQ8-10" target="Caj5VLOJavDtrcs3JnQ8-19">
          <mxGeometry relative="1" as="geometry" />
        </mxCell>
        <mxCell id="Caj5VLOJavDtrcs3JnQ8-27" style="rounded=0;orthogonalLoop=1;jettySize=auto;html=1;exitX=1;exitY=1;exitDx=0;exitDy=0;entryX=0;entryY=0;entryDx=0;entryDy=0;" edge="1" parent="Caj5VLOJavDtrcs3JnQ8-5" source="Caj5VLOJavDtrcs3JnQ8-18" target="Caj5VLOJavDtrcs3JnQ8-13">
          <mxGeometry relative="1" as="geometry" />
        </mxCell>
        <mxCell id="Caj5VLOJavDtrcs3JnQ8-28" style="rounded=0;orthogonalLoop=1;jettySize=auto;html=1;exitX=1;exitY=1;exitDx=0;exitDy=0;entryX=0;entryY=0;entryDx=0;entryDy=0;" edge="1" parent="Caj5VLOJavDtrcs3JnQ8-5" source="Caj5VLOJavDtrcs3JnQ8-18" target="Caj5VLOJavDtrcs3JnQ8-14">
          <mxGeometry relative="1" as="geometry" />
        </mxCell>
        <mxCell id="Caj5VLOJavDtrcs3JnQ8-29" style="rounded=0;orthogonalLoop=1;jettySize=auto;html=1;exitX=1;exitY=1;exitDx=0;exitDy=0;entryX=0;entryY=0;entryDx=0;entryDy=0;" edge="1" parent="Caj5VLOJavDtrcs3JnQ8-5" source="Caj5VLOJavDtrcs3JnQ8-19" target="Caj5VLOJavDtrcs3JnQ8-14">
          <mxGeometry relative="1" as="geometry">
            <mxPoint x="202.1052631578947" y="172.71428571428572" as="targetPoint" />
          </mxGeometry>
        </mxCell>
        <mxCell id="Caj5VLOJavDtrcs3JnQ8-30" style="rounded=0;orthogonalLoop=1;jettySize=auto;html=1;exitX=0;exitY=0;exitDx=0;exitDy=0;entryX=1;entryY=1;entryDx=0;entryDy=0;" edge="1" parent="Caj5VLOJavDtrcs3JnQ8-5" source="Caj5VLOJavDtrcs3JnQ8-22" target="Caj5VLOJavDtrcs3JnQ8-9">
          <mxGeometry relative="1" as="geometry" />
        </mxCell>
        <mxCell id="Caj5VLOJavDtrcs3JnQ8-31" style="rounded=0;orthogonalLoop=1;jettySize=auto;html=1;exitX=0;exitY=0;exitDx=0;exitDy=0;entryX=1;entryY=1;entryDx=0;entryDy=0;" edge="1" parent="Caj5VLOJavDtrcs3JnQ8-5" source="Caj5VLOJavDtrcs3JnQ8-22" target="Caj5VLOJavDtrcs3JnQ8-10">
          <mxGeometry relative="1" as="geometry" />
        </mxCell>
        <mxCell id="Caj5VLOJavDtrcs3JnQ8-32" style="rounded=0;orthogonalLoop=1;jettySize=auto;html=1;exitX=0;exitY=0;exitDx=0;exitDy=0;entryX=1;entryY=1;entryDx=0;entryDy=0;" edge="1" parent="Caj5VLOJavDtrcs3JnQ8-5" source="Caj5VLOJavDtrcs3JnQ8-23" target="Caj5VLOJavDtrcs3JnQ8-10">
          <mxGeometry relative="1" as="geometry" />
        </mxCell>
        <mxCell id="Caj5VLOJavDtrcs3JnQ8-33" style="rounded=0;orthogonalLoop=1;jettySize=auto;html=1;exitX=0;exitY=1;exitDx=0;exitDy=0;entryX=1;entryY=0;entryDx=0;entryDy=0;" edge="1" parent="Caj5VLOJavDtrcs3JnQ8-5" source="Caj5VLOJavDtrcs3JnQ8-13" target="Caj5VLOJavDtrcs3JnQ8-22">
          <mxGeometry relative="1" as="geometry" />
        </mxCell>
        <mxCell id="Caj5VLOJavDtrcs3JnQ8-34" value="$$\mathcal{G}(\mathbf{A})$$&amp;nbsp;" style="text;html=1;strokeColor=none;fillColor=none;align=center;verticalAlign=middle;whiteSpace=wrap;rounded=0;fontSize=20;" vertex="1" parent="Caj5VLOJavDtrcs3JnQ8-4">
          <mxGeometry x="24.920000000000016" width="194" height="30" as="geometry" />
        </mxCell>
        <mxCell id="Caj5VLOJavDtrcs3JnQ8-35" value="" style="group" vertex="1" connectable="0" parent="Caj5VLOJavDtrcs3JnQ8-4">
          <mxGeometry x="286" y="30" width="243.84962406015035" height="310" as="geometry" />
        </mxCell>
        <mxCell id="Caj5VLOJavDtrcs3JnQ8-36" value="" style="group" vertex="1" connectable="0" parent="Caj5VLOJavDtrcs3JnQ8-35">
          <mxGeometry x="0.36090225563913236" y="103.6736842105263" width="243.48872180451121" height="101.8526315789474" as="geometry" />
        </mxCell>
        <mxCell id="Caj5VLOJavDtrcs3JnQ8-37" value="" style="group" vertex="1" connectable="0" parent="Caj5VLOJavDtrcs3JnQ8-36">
          <mxGeometry y="0.8000000000000256" width="70.85714285714286" height="101.05263157894737" as="geometry" />
        </mxCell>
        <mxCell id="Caj5VLOJavDtrcs3JnQ8-38" value="" style="ellipse;whiteSpace=wrap;html=1;rotation=-90;fillColor=#dae8fc;strokeColor=#6c8ebf;" vertex="1" parent="Caj5VLOJavDtrcs3JnQ8-37">
          <mxGeometry x="-15.097744360902265" y="15.097744360902254" width="101.05263157894736" height="70.85714285714286" as="geometry" />
        </mxCell>
        <mxCell id="Caj5VLOJavDtrcs3JnQ8-39" style="edgeStyle=orthogonalEdgeStyle;rounded=0;orthogonalLoop=1;jettySize=auto;html=1;exitX=0.5;exitY=1;exitDx=0;exitDy=0;entryX=0.5;entryY=0;entryDx=0;entryDy=0;endArrow=none;endFill=0;" edge="1" parent="Caj5VLOJavDtrcs3JnQ8-37" source="Caj5VLOJavDtrcs3JnQ8-40" target="Caj5VLOJavDtrcs3JnQ8-41">
          <mxGeometry relative="1" as="geometry" />
        </mxCell>
        <mxCell id="Caj5VLOJavDtrcs3JnQ8-40" value="6" style="ellipse;whiteSpace=wrap;html=1;aspect=fixed;fillColor=#f8cecc;strokeColor=#b85450;fontSize=20;" vertex="1" parent="Caj5VLOJavDtrcs3JnQ8-37">
          <mxGeometry x="22.637518796992467" y="16.370601503759385" width="25" height="25" as="geometry" />
        </mxCell>
        <mxCell id="Caj5VLOJavDtrcs3JnQ8-41" value="7" style="ellipse;whiteSpace=wrap;html=1;aspect=fixed;fillColor=#f8cecc;strokeColor=#b85450;fontSize=20;" vertex="1" parent="Caj5VLOJavDtrcs3JnQ8-37">
          <mxGeometry x="22.637518796992467" y="59.37203007518798" width="25" height="25" as="geometry" />
        </mxCell>
        <mxCell id="Caj5VLOJavDtrcs3JnQ8-42" style="edgeStyle=orthogonalEdgeStyle;rounded=0;orthogonalLoop=1;jettySize=auto;html=1;exitX=0;exitY=0;exitDx=0;exitDy=0;entryX=1;entryY=0;entryDx=0;entryDy=0;curved=1;" edge="1" parent="Caj5VLOJavDtrcs3JnQ8-37" source="Caj5VLOJavDtrcs3JnQ8-40" target="Caj5VLOJavDtrcs3JnQ8-40">
          <mxGeometry relative="1" as="geometry">
            <Array as="points">
              <mxPoint x="26" y="6" />
              <mxPoint x="44" y="6" />
            </Array>
          </mxGeometry>
        </mxCell>
        <mxCell id="Caj5VLOJavDtrcs3JnQ8-43" style="edgeStyle=orthogonalEdgeStyle;rounded=0;orthogonalLoop=1;jettySize=auto;html=1;exitX=1;exitY=1;exitDx=0;exitDy=0;entryX=0;entryY=1;entryDx=0;entryDy=0;curved=1;" edge="1" parent="Caj5VLOJavDtrcs3JnQ8-37" source="Caj5VLOJavDtrcs3JnQ8-41" target="Caj5VLOJavDtrcs3JnQ8-41">
          <mxGeometry relative="1" as="geometry">
            <Array as="points">
              <mxPoint x="44" y="96" />
              <mxPoint x="26" y="96" />
            </Array>
          </mxGeometry>
        </mxCell>
        <mxCell id="Caj5VLOJavDtrcs3JnQ8-44" value="" style="group" vertex="1" connectable="0" parent="Caj5VLOJavDtrcs3JnQ8-36">
          <mxGeometry x="172.63157894736838" width="70.85714285714286" height="101.05263157894737" as="geometry" />
        </mxCell>
        <mxCell id="Caj5VLOJavDtrcs3JnQ8-45" value="" style="ellipse;whiteSpace=wrap;html=1;rotation=-90;fillColor=#dae8fc;strokeColor=#6c8ebf;" vertex="1" parent="Caj5VLOJavDtrcs3JnQ8-44">
          <mxGeometry x="-15.097744360902254" y="15.097744360902283" width="101.05263157894736" height="70.85714285714286" as="geometry" />
        </mxCell>
        <mxCell id="Caj5VLOJavDtrcs3JnQ8-46" value="2" style="ellipse;whiteSpace=wrap;html=1;aspect=fixed;fillColor=#f8cecc;strokeColor=#b85450;fontSize=20;" vertex="1" parent="Caj5VLOJavDtrcs3JnQ8-44">
          <mxGeometry x="22.637518796992516" y="15.086315789473712" width="25" height="25" as="geometry" />
        </mxCell>
        <mxCell id="Caj5VLOJavDtrcs3JnQ8-47" value="3" style="ellipse;whiteSpace=wrap;html=1;aspect=fixed;fillColor=#f8cecc;strokeColor=#b85450;fontSize=20;" vertex="1" parent="Caj5VLOJavDtrcs3JnQ8-44">
          <mxGeometry x="22.637518796992516" y="59.37203007518801" width="25" height="25" as="geometry" />
        </mxCell>
        <mxCell id="Caj5VLOJavDtrcs3JnQ8-48" style="edgeStyle=orthogonalEdgeStyle;rounded=0;orthogonalLoop=1;jettySize=auto;html=1;exitX=0;exitY=0;exitDx=0;exitDy=0;entryX=1;entryY=0;entryDx=0;entryDy=0;curved=1;" edge="1" parent="Caj5VLOJavDtrcs3JnQ8-44" source="Caj5VLOJavDtrcs3JnQ8-46" target="Caj5VLOJavDtrcs3JnQ8-46">
          <mxGeometry relative="1" as="geometry">
            <Array as="points">
              <mxPoint x="26" y="6" />
              <mxPoint x="44" y="6" />
            </Array>
          </mxGeometry>
        </mxCell>
        <mxCell id="Caj5VLOJavDtrcs3JnQ8-49" value="" style="group" vertex="1" connectable="0" parent="Caj5VLOJavDtrcs3JnQ8-35">
          <mxGeometry x="86.6766917293233" y="2.616541353383475" width="70.85714285714289" height="304.76691729323306" as="geometry" />
        </mxCell>
        <mxCell id="Caj5VLOJavDtrcs3JnQ8-50" value="" style="group" vertex="1" connectable="0" parent="Caj5VLOJavDtrcs3JnQ8-49">
          <mxGeometry width="70.85714285714288" height="101.05263157894737" as="geometry" />
        </mxCell>
        <mxCell id="Caj5VLOJavDtrcs3JnQ8-51" value="" style="ellipse;whiteSpace=wrap;html=1;rotation=-90;fillColor=#dae8fc;strokeColor=#6c8ebf;" vertex="1" parent="Caj5VLOJavDtrcs3JnQ8-50">
          <mxGeometry x="-15.097744360902254" y="15.09774436090224" width="101.05263157894736" height="70.85714285714286" as="geometry" />
        </mxCell>
        <mxCell id="Caj5VLOJavDtrcs3JnQ8-52" style="edgeStyle=orthogonalEdgeStyle;rounded=0;orthogonalLoop=1;jettySize=auto;html=1;exitX=0.5;exitY=1;exitDx=0;exitDy=0;entryX=0.5;entryY=0;entryDx=0;entryDy=0;startArrow=none;startFill=0;fontSize=20;endArrow=none;endFill=0;" edge="1" parent="Caj5VLOJavDtrcs3JnQ8-50" source="Caj5VLOJavDtrcs3JnQ8-53" target="Caj5VLOJavDtrcs3JnQ8-54">
          <mxGeometry relative="1" as="geometry" />
        </mxCell>
        <mxCell id="Caj5VLOJavDtrcs3JnQ8-53" value="0" style="ellipse;whiteSpace=wrap;html=1;aspect=fixed;fillColor=#f8cecc;strokeColor=#b85450;fontSize=20;" vertex="1" parent="Caj5VLOJavDtrcs3JnQ8-50">
          <mxGeometry x="22.637518796992474" y="15.086315789473666" width="25" height="25" as="geometry" />
        </mxCell>
        <mxCell id="Caj5VLOJavDtrcs3JnQ8-54" value="1" style="ellipse;whiteSpace=wrap;html=1;aspect=fixed;fillColor=#f8cecc;strokeColor=#b85450;fontSize=20;" vertex="1" parent="Caj5VLOJavDtrcs3JnQ8-50">
          <mxGeometry x="22.637518796992474" y="59.37203007518796" width="25" height="25" as="geometry" />
        </mxCell>
        <mxCell id="Caj5VLOJavDtrcs3JnQ8-55" style="edgeStyle=orthogonalEdgeStyle;rounded=0;orthogonalLoop=1;jettySize=auto;html=1;exitX=0;exitY=0;exitDx=0;exitDy=0;entryX=1;entryY=0;entryDx=0;entryDy=0;curved=1;" edge="1" parent="Caj5VLOJavDtrcs3JnQ8-50" source="Caj5VLOJavDtrcs3JnQ8-53" target="Caj5VLOJavDtrcs3JnQ8-53">
          <mxGeometry relative="1" as="geometry">
            <Array as="points">
              <mxPoint x="26" y="7" />
              <mxPoint x="44" y="7" />
            </Array>
          </mxGeometry>
        </mxCell>
        <mxCell id="Caj5VLOJavDtrcs3JnQ8-56" style="edgeStyle=orthogonalEdgeStyle;rounded=0;orthogonalLoop=1;jettySize=auto;html=1;exitX=1;exitY=1;exitDx=0;exitDy=0;entryX=0;entryY=1;entryDx=0;entryDy=0;curved=1;" edge="1" parent="Caj5VLOJavDtrcs3JnQ8-50" source="Caj5VLOJavDtrcs3JnQ8-54" target="Caj5VLOJavDtrcs3JnQ8-54">
          <mxGeometry relative="1" as="geometry">
            <Array as="points">
              <mxPoint x="44" y="97" />
              <mxPoint x="26" y="97" />
            </Array>
          </mxGeometry>
        </mxCell>
        <mxCell id="Caj5VLOJavDtrcs3JnQ8-57" value="" style="group" vertex="1" connectable="0" parent="Caj5VLOJavDtrcs3JnQ8-49">
          <mxGeometry y="203.71428571428575" width="70.85714285714289" height="101.05263157894731" as="geometry" />
        </mxCell>
        <mxCell id="Caj5VLOJavDtrcs3JnQ8-58" value="" style="ellipse;whiteSpace=wrap;html=1;rotation=-90;fillColor=#dae8fc;strokeColor=#6c8ebf;" vertex="1" parent="Caj5VLOJavDtrcs3JnQ8-57">
          <mxGeometry x="-15.097744360902226" y="15.097744360902226" width="101.05263157894736" height="70.85714285714286" as="geometry" />
        </mxCell>
        <mxCell id="Caj5VLOJavDtrcs3JnQ8-59" style="edgeStyle=orthogonalEdgeStyle;rounded=0;orthogonalLoop=1;jettySize=auto;html=1;exitX=0.5;exitY=1;exitDx=0;exitDy=0;entryX=0.5;entryY=0;entryDx=0;entryDy=0;endArrow=none;endFill=0;" edge="1" parent="Caj5VLOJavDtrcs3JnQ8-57" source="Caj5VLOJavDtrcs3JnQ8-60" target="Caj5VLOJavDtrcs3JnQ8-61">
          <mxGeometry relative="1" as="geometry" />
        </mxCell>
        <mxCell id="Caj5VLOJavDtrcs3JnQ8-60" value="4" style="ellipse;whiteSpace=wrap;html=1;aspect=fixed;fillColor=#f8cecc;strokeColor=#b85450;fontSize=20;" vertex="1" parent="Caj5VLOJavDtrcs3JnQ8-57">
          <mxGeometry x="22.637518796992516" y="15.086315789473641" width="25" height="25" as="geometry" />
        </mxCell>
        <mxCell id="Caj5VLOJavDtrcs3JnQ8-61" value="5" style="ellipse;whiteSpace=wrap;html=1;aspect=fixed;fillColor=#f8cecc;strokeColor=#b85450;fontSize=20;" vertex="1" parent="Caj5VLOJavDtrcs3JnQ8-57">
          <mxGeometry x="22.637518796992516" y="59.372030075187894" width="25" height="25" as="geometry" />
        </mxCell>
        <mxCell id="Caj5VLOJavDtrcs3JnQ8-62" style="edgeStyle=orthogonalEdgeStyle;rounded=0;orthogonalLoop=1;jettySize=auto;html=1;exitX=1;exitY=1;exitDx=0;exitDy=0;entryX=0;entryY=1;entryDx=0;entryDy=0;curved=1;" edge="1" parent="Caj5VLOJavDtrcs3JnQ8-57" source="Caj5VLOJavDtrcs3JnQ8-61" target="Caj5VLOJavDtrcs3JnQ8-61">
          <mxGeometry relative="1" as="geometry">
            <Array as="points">
              <mxPoint x="44" y="94" />
              <mxPoint x="26" y="94" />
            </Array>
            <mxPoint x="44.129999999999995" y="84.37571428571425" as="sourcePoint" />
            <mxPoint x="26.129999999999995" y="84.37571428571425" as="targetPoint" />
          </mxGeometry>
        </mxCell>
        <mxCell id="Caj5VLOJavDtrcs3JnQ8-63" style="edgeStyle=orthogonalEdgeStyle;rounded=0;orthogonalLoop=1;jettySize=auto;html=1;exitX=0;exitY=0;exitDx=0;exitDy=0;entryX=1;entryY=0;entryDx=0;entryDy=0;curved=1;" edge="1" parent="Caj5VLOJavDtrcs3JnQ8-57" source="Caj5VLOJavDtrcs3JnQ8-60" target="Caj5VLOJavDtrcs3JnQ8-60">
          <mxGeometry relative="1" as="geometry">
            <Array as="points">
              <mxPoint x="26" y="4" />
              <mxPoint x="44" y="4" />
            </Array>
          </mxGeometry>
        </mxCell>
        <mxCell id="Caj5VLOJavDtrcs3JnQ8-64" value="" style="group" vertex="1" connectable="0" parent="Caj5VLOJavDtrcs3JnQ8-4">
          <mxGeometry x="572" y="30" width="243.84962406015035" height="310" as="geometry" />
        </mxCell>
        <mxCell id="Caj5VLOJavDtrcs3JnQ8-65" value="" style="group" vertex="1" connectable="0" parent="Caj5VLOJavDtrcs3JnQ8-64">
          <mxGeometry x="0.36090225563913236" y="103.6736842105263" width="243.48872180451121" height="101.8526315789474" as="geometry" />
        </mxCell>
        <mxCell id="Caj5VLOJavDtrcs3JnQ8-66" value="" style="group" vertex="1" connectable="0" parent="Caj5VLOJavDtrcs3JnQ8-65">
          <mxGeometry y="0.8000000000000256" width="70.85714285714286" height="101.05263157894737" as="geometry" />
        </mxCell>
        <mxCell id="Caj5VLOJavDtrcs3JnQ8-67" value="" style="ellipse;whiteSpace=wrap;html=1;rotation=-90;fillColor=#dae8fc;strokeColor=#6c8ebf;" vertex="1" parent="Caj5VLOJavDtrcs3JnQ8-66">
          <mxGeometry x="-15.097744360902265" y="15.097744360902254" width="101.05263157894736" height="70.85714285714286" as="geometry" />
        </mxCell>
        <mxCell id="Caj5VLOJavDtrcs3JnQ8-68" style="edgeStyle=orthogonalEdgeStyle;rounded=0;orthogonalLoop=1;jettySize=auto;html=1;exitX=0.5;exitY=1;exitDx=0;exitDy=0;entryX=0.5;entryY=0;entryDx=0;entryDy=0;startArrow=none;startFill=0;fontSize=20;endArrow=none;endFill=0;" edge="1" parent="Caj5VLOJavDtrcs3JnQ8-66" source="Caj5VLOJavDtrcs3JnQ8-69" target="Caj5VLOJavDtrcs3JnQ8-70">
          <mxGeometry relative="1" as="geometry" />
        </mxCell>
        <mxCell id="Caj5VLOJavDtrcs3JnQ8-69" value="6" style="ellipse;whiteSpace=wrap;html=1;aspect=fixed;fillColor=#f8cecc;strokeColor=#b85450;fontSize=20;" vertex="1" parent="Caj5VLOJavDtrcs3JnQ8-66">
          <mxGeometry x="22.637518796992467" y="16.370601503759385" width="25" height="25" as="geometry" />
        </mxCell>
        <mxCell id="Caj5VLOJavDtrcs3JnQ8-70" value="7" style="ellipse;whiteSpace=wrap;html=1;aspect=fixed;fillColor=#f8cecc;strokeColor=#b85450;fontSize=20;" vertex="1" parent="Caj5VLOJavDtrcs3JnQ8-66">
          <mxGeometry x="22.637518796992467" y="59.37203007518798" width="25" height="25" as="geometry" />
        </mxCell>
        <mxCell id="Caj5VLOJavDtrcs3JnQ8-71" style="edgeStyle=orthogonalEdgeStyle;rounded=0;orthogonalLoop=1;jettySize=auto;html=1;exitX=0;exitY=0;exitDx=0;exitDy=0;entryX=1;entryY=0;entryDx=0;entryDy=0;curved=1;" edge="1" parent="Caj5VLOJavDtrcs3JnQ8-66" source="Caj5VLOJavDtrcs3JnQ8-69" target="Caj5VLOJavDtrcs3JnQ8-69">
          <mxGeometry relative="1" as="geometry">
            <Array as="points">
              <mxPoint x="26" y="6" />
              <mxPoint x="44" y="6" />
            </Array>
          </mxGeometry>
        </mxCell>
        <mxCell id="Caj5VLOJavDtrcs3JnQ8-72" style="edgeStyle=orthogonalEdgeStyle;rounded=0;orthogonalLoop=1;jettySize=auto;html=1;exitX=1;exitY=1;exitDx=0;exitDy=0;entryX=0;entryY=1;entryDx=0;entryDy=0;curved=1;" edge="1" parent="Caj5VLOJavDtrcs3JnQ8-66" source="Caj5VLOJavDtrcs3JnQ8-70" target="Caj5VLOJavDtrcs3JnQ8-70">
          <mxGeometry relative="1" as="geometry">
            <Array as="points">
              <mxPoint x="44" y="96" />
              <mxPoint x="26" y="96" />
            </Array>
          </mxGeometry>
        </mxCell>
        <mxCell id="Caj5VLOJavDtrcs3JnQ8-73" value="" style="group" vertex="1" connectable="0" parent="Caj5VLOJavDtrcs3JnQ8-65">
          <mxGeometry x="172.63157894736838" width="70.85714285714286" height="101.05263157894737" as="geometry" />
        </mxCell>
        <mxCell id="Caj5VLOJavDtrcs3JnQ8-74" value="" style="ellipse;whiteSpace=wrap;html=1;rotation=-90;fillColor=#dae8fc;strokeColor=#6c8ebf;" vertex="1" parent="Caj5VLOJavDtrcs3JnQ8-73">
          <mxGeometry x="-15.097744360902254" y="15.097744360902283" width="101.05263157894736" height="70.85714285714286" as="geometry" />
        </mxCell>
        <mxCell id="Caj5VLOJavDtrcs3JnQ8-75" style="edgeStyle=orthogonalEdgeStyle;rounded=0;orthogonalLoop=1;jettySize=auto;html=1;exitX=0.5;exitY=1;exitDx=0;exitDy=0;entryX=0.5;entryY=0;entryDx=0;entryDy=0;endArrow=none;endFill=0;" edge="1" parent="Caj5VLOJavDtrcs3JnQ8-73" source="Caj5VLOJavDtrcs3JnQ8-76" target="Caj5VLOJavDtrcs3JnQ8-77">
          <mxGeometry relative="1" as="geometry" />
        </mxCell>
        <mxCell id="Caj5VLOJavDtrcs3JnQ8-76" value="2" style="ellipse;whiteSpace=wrap;html=1;aspect=fixed;fillColor=#f8cecc;strokeColor=#b85450;fontSize=20;" vertex="1" parent="Caj5VLOJavDtrcs3JnQ8-73">
          <mxGeometry x="22.637518796992516" y="15.086315789473712" width="25" height="25" as="geometry" />
        </mxCell>
        <mxCell id="Caj5VLOJavDtrcs3JnQ8-77" value="3" style="ellipse;whiteSpace=wrap;html=1;aspect=fixed;fillColor=#f8cecc;strokeColor=#b85450;fontSize=20;" vertex="1" parent="Caj5VLOJavDtrcs3JnQ8-73">
          <mxGeometry x="22.637518796992516" y="59.37203007518801" width="25" height="25" as="geometry" />
        </mxCell>
        <mxCell id="Caj5VLOJavDtrcs3JnQ8-78" style="edgeStyle=orthogonalEdgeStyle;rounded=0;orthogonalLoop=1;jettySize=auto;html=1;exitX=0;exitY=0;exitDx=0;exitDy=0;entryX=1;entryY=0;entryDx=0;entryDy=0;curved=1;" edge="1" parent="Caj5VLOJavDtrcs3JnQ8-73" source="Caj5VLOJavDtrcs3JnQ8-76" target="Caj5VLOJavDtrcs3JnQ8-76">
          <mxGeometry relative="1" as="geometry">
            <Array as="points">
              <mxPoint x="26" y="6" />
              <mxPoint x="44" y="6" />
            </Array>
          </mxGeometry>
        </mxCell>
        <mxCell id="Caj5VLOJavDtrcs3JnQ8-79" style="edgeStyle=orthogonalEdgeStyle;rounded=0;orthogonalLoop=1;jettySize=auto;html=1;exitX=1;exitY=1;exitDx=0;exitDy=0;entryX=0;entryY=1;entryDx=0;entryDy=0;curved=1;" edge="1" parent="Caj5VLOJavDtrcs3JnQ8-73" source="Caj5VLOJavDtrcs3JnQ8-77" target="Caj5VLOJavDtrcs3JnQ8-77">
          <mxGeometry relative="1" as="geometry">
            <Array as="points">
              <mxPoint x="44" y="96" />
              <mxPoint x="26" y="96" />
            </Array>
          </mxGeometry>
        </mxCell>
        <mxCell id="Caj5VLOJavDtrcs3JnQ8-80" value="" style="group" vertex="1" connectable="0" parent="Caj5VLOJavDtrcs3JnQ8-64">
          <mxGeometry x="86.6766917293233" y="2.616541353383475" width="70.85714285714289" height="304.76691729323306" as="geometry" />
        </mxCell>
        <mxCell id="Caj5VLOJavDtrcs3JnQ8-81" value="" style="group" vertex="1" connectable="0" parent="Caj5VLOJavDtrcs3JnQ8-80">
          <mxGeometry width="70.85714285714288" height="101.05263157894737" as="geometry" />
        </mxCell>
        <mxCell id="Caj5VLOJavDtrcs3JnQ8-82" value="" style="ellipse;whiteSpace=wrap;html=1;rotation=-90;fillColor=#dae8fc;strokeColor=#6c8ebf;" vertex="1" parent="Caj5VLOJavDtrcs3JnQ8-81">
          <mxGeometry x="-15.097744360902254" y="15.09774436090224" width="101.05263157894736" height="70.85714285714286" as="geometry" />
        </mxCell>
        <mxCell id="Caj5VLOJavDtrcs3JnQ8-83" style="edgeStyle=orthogonalEdgeStyle;rounded=0;orthogonalLoop=1;jettySize=auto;html=1;exitX=0.5;exitY=1;exitDx=0;exitDy=0;entryX=0.5;entryY=0;entryDx=0;entryDy=0;startArrow=none;startFill=0;fontSize=20;endArrow=none;endFill=0;" edge="1" parent="Caj5VLOJavDtrcs3JnQ8-81" source="Caj5VLOJavDtrcs3JnQ8-84" target="Caj5VLOJavDtrcs3JnQ8-85">
          <mxGeometry relative="1" as="geometry" />
        </mxCell>
        <mxCell id="Caj5VLOJavDtrcs3JnQ8-84" value="0" style="ellipse;whiteSpace=wrap;html=1;aspect=fixed;fillColor=#f8cecc;strokeColor=#b85450;fontSize=20;" vertex="1" parent="Caj5VLOJavDtrcs3JnQ8-81">
          <mxGeometry x="22.72" y="15.17" width="24.83" height="24.83" as="geometry" />
        </mxCell>
        <mxCell id="Caj5VLOJavDtrcs3JnQ8-85" value="1" style="ellipse;whiteSpace=wrap;html=1;aspect=fixed;fillColor=#f8cecc;strokeColor=#b85450;fontSize=20;" vertex="1" parent="Caj5VLOJavDtrcs3JnQ8-81">
          <mxGeometry x="22.637518796992474" y="59.37203007518796" width="25" height="25" as="geometry" />
        </mxCell>
        <mxCell id="Caj5VLOJavDtrcs3JnQ8-86" style="edgeStyle=orthogonalEdgeStyle;rounded=0;orthogonalLoop=1;jettySize=auto;html=1;exitX=0;exitY=0;exitDx=0;exitDy=0;entryX=1;entryY=0;entryDx=0;entryDy=0;curved=1;" edge="1" parent="Caj5VLOJavDtrcs3JnQ8-81" source="Caj5VLOJavDtrcs3JnQ8-84" target="Caj5VLOJavDtrcs3JnQ8-84">
          <mxGeometry relative="1" as="geometry">
            <Array as="points">
              <mxPoint x="26" y="7" />
              <mxPoint x="44" y="7" />
            </Array>
          </mxGeometry>
        </mxCell>
        <mxCell id="Caj5VLOJavDtrcs3JnQ8-87" style="edgeStyle=orthogonalEdgeStyle;rounded=0;orthogonalLoop=1;jettySize=auto;html=1;exitX=1;exitY=1;exitDx=0;exitDy=0;entryX=0;entryY=1;entryDx=0;entryDy=0;curved=1;" edge="1" parent="Caj5VLOJavDtrcs3JnQ8-81" source="Caj5VLOJavDtrcs3JnQ8-85" target="Caj5VLOJavDtrcs3JnQ8-85">
          <mxGeometry relative="1" as="geometry">
            <Array as="points">
              <mxPoint x="44" y="97" />
              <mxPoint x="26" y="97" />
            </Array>
          </mxGeometry>
        </mxCell>
        <mxCell id="Caj5VLOJavDtrcs3JnQ8-88" value="" style="group" vertex="1" connectable="0" parent="Caj5VLOJavDtrcs3JnQ8-80">
          <mxGeometry y="203.71428571428575" width="70.85714285714289" height="101.05263157894731" as="geometry" />
        </mxCell>
        <mxCell id="Caj5VLOJavDtrcs3JnQ8-89" value="" style="ellipse;whiteSpace=wrap;html=1;rotation=-90;fillColor=#dae8fc;strokeColor=#6c8ebf;" vertex="1" parent="Caj5VLOJavDtrcs3JnQ8-88">
          <mxGeometry x="-15.097744360902226" y="15.097744360902226" width="101.05263157894736" height="70.85714285714286" as="geometry" />
        </mxCell>
        <mxCell id="Caj5VLOJavDtrcs3JnQ8-90" value="4" style="ellipse;whiteSpace=wrap;html=1;aspect=fixed;fillColor=#f8cecc;strokeColor=#b85450;fontSize=20;" vertex="1" parent="Caj5VLOJavDtrcs3JnQ8-88">
          <mxGeometry x="22.637518796992516" y="15.086315789473641" width="25" height="25" as="geometry" />
        </mxCell>
        <mxCell id="Caj5VLOJavDtrcs3JnQ8-91" value="5" style="ellipse;whiteSpace=wrap;html=1;aspect=fixed;fillColor=#f8cecc;strokeColor=#b85450;fontSize=20;" vertex="1" parent="Caj5VLOJavDtrcs3JnQ8-88">
          <mxGeometry x="22.637518796992516" y="59.372030075187894" width="25" height="25" as="geometry" />
        </mxCell>
        <mxCell id="Caj5VLOJavDtrcs3JnQ8-92" style="edgeStyle=orthogonalEdgeStyle;rounded=0;orthogonalLoop=1;jettySize=auto;html=1;exitX=0;exitY=0;exitDx=0;exitDy=0;entryX=1;entryY=0;entryDx=0;entryDy=0;curved=1;" edge="1" parent="Caj5VLOJavDtrcs3JnQ8-88" source="Caj5VLOJavDtrcs3JnQ8-90" target="Caj5VLOJavDtrcs3JnQ8-90">
          <mxGeometry relative="1" as="geometry">
            <Array as="points">
              <mxPoint x="26" y="4" />
              <mxPoint x="44" y="4" />
            </Array>
          </mxGeometry>
        </mxCell>
        <mxCell id="Caj5VLOJavDtrcs3JnQ8-93" value="$$\mathcal{G}(\mathbf{B}_\text{in})$$&amp;nbsp;" style="text;html=1;strokeColor=none;fillColor=none;align=center;verticalAlign=middle;whiteSpace=wrap;rounded=0;fontSize=20;" vertex="1" parent="Caj5VLOJavDtrcs3JnQ8-4">
          <mxGeometry x="310.9200000000001" width="194" height="30" as="geometry" />
        </mxCell>
        <mxCell id="Caj5VLOJavDtrcs3JnQ8-94" value="$$\mathcal{G}(\mathbf{C}_\text{out})$$" style="text;html=1;strokeColor=none;fillColor=none;align=center;verticalAlign=middle;whiteSpace=wrap;rounded=0;fontSize=20;" vertex="1" parent="Caj5VLOJavDtrcs3JnQ8-4">
          <mxGeometry x="596.9200000000002" y="-10" width="194" height="30" as="geometry" />
        </mxCell>
        <mxCell id="Caj5VLOJavDtrcs3JnQ8-95" value="" style="group" vertex="1" connectable="0" parent="Caj5VLOJavDtrcs3JnQ8-4">
          <mxGeometry x="858" y="30" width="243.84962406015035" height="310" as="geometry" />
        </mxCell>
        <mxCell id="Caj5VLOJavDtrcs3JnQ8-96" value="" style="group" vertex="1" connectable="0" parent="Caj5VLOJavDtrcs3JnQ8-95">
          <mxGeometry x="0.36090225563913236" y="103.6736842105263" width="243.48872180451121" height="101.8526315789474" as="geometry" />
        </mxCell>
        <mxCell id="Caj5VLOJavDtrcs3JnQ8-97" value="" style="group" vertex="1" connectable="0" parent="Caj5VLOJavDtrcs3JnQ8-96">
          <mxGeometry y="0.8000000000000256" width="70.85714285714286" height="101.05263157894737" as="geometry" />
        </mxCell>
        <mxCell id="Caj5VLOJavDtrcs3JnQ8-98" value="" style="ellipse;whiteSpace=wrap;html=1;rotation=-90;fillColor=#dae8fc;strokeColor=#6c8ebf;" vertex="1" parent="Caj5VLOJavDtrcs3JnQ8-97">
          <mxGeometry x="-15.097744360902265" y="15.097744360902254" width="101.05263157894736" height="70.85714285714286" as="geometry" />
        </mxCell>
        <mxCell id="Caj5VLOJavDtrcs3JnQ8-99" value="6" style="ellipse;whiteSpace=wrap;html=1;aspect=fixed;fillColor=#f8cecc;strokeColor=#b85450;fontSize=20;" vertex="1" parent="Caj5VLOJavDtrcs3JnQ8-97">
          <mxGeometry x="22.637518796992467" y="16.370601503759385" width="25" height="25" as="geometry" />
        </mxCell>
        <mxCell id="Caj5VLOJavDtrcs3JnQ8-100" value="7" style="ellipse;whiteSpace=wrap;html=1;aspect=fixed;fillColor=#f8cecc;strokeColor=#b85450;fontSize=20;" vertex="1" parent="Caj5VLOJavDtrcs3JnQ8-97">
          <mxGeometry x="22.637518796992467" y="59.37203007518798" width="25" height="25" as="geometry" />
        </mxCell>
        <mxCell id="Caj5VLOJavDtrcs3JnQ8-101" value="" style="group" vertex="1" connectable="0" parent="Caj5VLOJavDtrcs3JnQ8-96">
          <mxGeometry x="172.63157894736838" width="70.85714285714286" height="101.05263157894737" as="geometry" />
        </mxCell>
        <mxCell id="Caj5VLOJavDtrcs3JnQ8-102" value="" style="ellipse;whiteSpace=wrap;html=1;rotation=-90;fillColor=#dae8fc;strokeColor=#6c8ebf;" vertex="1" parent="Caj5VLOJavDtrcs3JnQ8-101">
          <mxGeometry x="-15.097744360902254" y="15.097744360902283" width="101.05263157894736" height="70.85714285714286" as="geometry" />
        </mxCell>
        <mxCell id="Caj5VLOJavDtrcs3JnQ8-103" value="2" style="ellipse;whiteSpace=wrap;html=1;aspect=fixed;fillColor=#f8cecc;strokeColor=#b85450;fontSize=20;" vertex="1" parent="Caj5VLOJavDtrcs3JnQ8-101">
          <mxGeometry x="22.637518796992516" y="15.086315789473712" width="25" height="25" as="geometry" />
        </mxCell>
        <mxCell id="Caj5VLOJavDtrcs3JnQ8-104" value="3" style="ellipse;whiteSpace=wrap;html=1;aspect=fixed;fillColor=#f8cecc;strokeColor=#b85450;fontSize=20;" vertex="1" parent="Caj5VLOJavDtrcs3JnQ8-101">
          <mxGeometry x="22.637518796992516" y="59.37203007518801" width="25" height="25" as="geometry" />
        </mxCell>
        <mxCell id="Caj5VLOJavDtrcs3JnQ8-105" value="" style="group" vertex="1" connectable="0" parent="Caj5VLOJavDtrcs3JnQ8-95">
          <mxGeometry x="86.6766917293233" y="2.616541353383475" width="70.85714285714289" height="304.76691729323306" as="geometry" />
        </mxCell>
        <mxCell id="Caj5VLOJavDtrcs3JnQ8-106" value="" style="group" vertex="1" connectable="0" parent="Caj5VLOJavDtrcs3JnQ8-105">
          <mxGeometry width="70.85714285714288" height="101.05263157894737" as="geometry" />
        </mxCell>
        <mxCell id="Caj5VLOJavDtrcs3JnQ8-107" value="" style="ellipse;whiteSpace=wrap;html=1;rotation=-90;fillColor=#dae8fc;strokeColor=#6c8ebf;" vertex="1" parent="Caj5VLOJavDtrcs3JnQ8-106">
          <mxGeometry x="-15.097744360902254" y="15.09774436090224" width="101.05263157894736" height="70.85714285714286" as="geometry" />
        </mxCell>
        <mxCell id="Caj5VLOJavDtrcs3JnQ8-108" value="0" style="ellipse;whiteSpace=wrap;html=1;aspect=fixed;fillColor=#f8cecc;strokeColor=#b85450;fontSize=20;" vertex="1" parent="Caj5VLOJavDtrcs3JnQ8-106">
          <mxGeometry x="22.637518796992474" y="15.086315789473666" width="25" height="25" as="geometry" />
        </mxCell>
        <mxCell id="Caj5VLOJavDtrcs3JnQ8-109" value="1" style="ellipse;whiteSpace=wrap;html=1;aspect=fixed;fillColor=#f8cecc;strokeColor=#b85450;fontSize=20;" vertex="1" parent="Caj5VLOJavDtrcs3JnQ8-106">
          <mxGeometry x="22.637518796992474" y="59.37203007518796" width="25" height="25" as="geometry" />
        </mxCell>
        <mxCell id="Caj5VLOJavDtrcs3JnQ8-110" value="" style="group" vertex="1" connectable="0" parent="Caj5VLOJavDtrcs3JnQ8-105">
          <mxGeometry y="203.71428571428575" width="70.85714285714289" height="101.05263157894731" as="geometry" />
        </mxCell>
        <mxCell id="Caj5VLOJavDtrcs3JnQ8-111" value="" style="ellipse;whiteSpace=wrap;html=1;rotation=-90;fillColor=#dae8fc;strokeColor=#6c8ebf;" vertex="1" parent="Caj5VLOJavDtrcs3JnQ8-110">
          <mxGeometry x="-15.097744360902226" y="15.097744360902226" width="101.05263157894736" height="70.85714285714286" as="geometry" />
        </mxCell>
        <mxCell id="Caj5VLOJavDtrcs3JnQ8-112" value="4" style="ellipse;whiteSpace=wrap;html=1;aspect=fixed;fillColor=#f8cecc;strokeColor=#b85450;fontSize=20;" vertex="1" parent="Caj5VLOJavDtrcs3JnQ8-110">
          <mxGeometry x="22.637518796992516" y="15.086315789473641" width="25" height="25" as="geometry" />
        </mxCell>
        <mxCell id="Caj5VLOJavDtrcs3JnQ8-113" value="5" style="ellipse;whiteSpace=wrap;html=1;aspect=fixed;fillColor=#f8cecc;strokeColor=#b85450;fontSize=20;" vertex="1" parent="Caj5VLOJavDtrcs3JnQ8-110">
          <mxGeometry x="22.637518796992516" y="59.372030075187894" width="25" height="25" as="geometry" />
        </mxCell>
        <mxCell id="Caj5VLOJavDtrcs3JnQ8-114" style="rounded=0;orthogonalLoop=1;jettySize=auto;html=1;exitX=1;exitY=0;exitDx=0;exitDy=0;entryX=0;entryY=0.5;entryDx=0;entryDy=0;" edge="1" parent="Caj5VLOJavDtrcs3JnQ8-95" source="Caj5VLOJavDtrcs3JnQ8-99" target="Caj5VLOJavDtrcs3JnQ8-108">
          <mxGeometry relative="1" as="geometry" />
        </mxCell>
        <mxCell id="Caj5VLOJavDtrcs3JnQ8-115" style="rounded=0;orthogonalLoop=1;jettySize=auto;html=1;exitX=1;exitY=0;exitDx=0;exitDy=0;entryX=0;entryY=0.5;entryDx=0;entryDy=0;" edge="1" parent="Caj5VLOJavDtrcs3JnQ8-95" source="Caj5VLOJavDtrcs3JnQ8-100" target="Caj5VLOJavDtrcs3JnQ8-108">
          <mxGeometry relative="1" as="geometry" />
        </mxCell>
        <mxCell id="Caj5VLOJavDtrcs3JnQ8-116" style="rounded=0;orthogonalLoop=1;jettySize=auto;html=1;exitX=1;exitY=0;exitDx=0;exitDy=0;entryX=0;entryY=0.5;entryDx=0;entryDy=0;" edge="1" parent="Caj5VLOJavDtrcs3JnQ8-95" source="Caj5VLOJavDtrcs3JnQ8-100" target="Caj5VLOJavDtrcs3JnQ8-109">
          <mxGeometry relative="1" as="geometry" />
        </mxCell>
        <mxCell id="Caj5VLOJavDtrcs3JnQ8-117" style="rounded=0;orthogonalLoop=1;jettySize=auto;html=1;exitX=1;exitY=1;exitDx=0;exitDy=0;entryX=0;entryY=0;entryDx=0;entryDy=0;" edge="1" parent="Caj5VLOJavDtrcs3JnQ8-95" source="Caj5VLOJavDtrcs3JnQ8-108" target="Caj5VLOJavDtrcs3JnQ8-103">
          <mxGeometry relative="1" as="geometry" />
        </mxCell>
        <mxCell id="Caj5VLOJavDtrcs3JnQ8-118" style="rounded=0;orthogonalLoop=1;jettySize=auto;html=1;exitX=1;exitY=1;exitDx=0;exitDy=0;entryX=0;entryY=0;entryDx=0;entryDy=0;" edge="1" parent="Caj5VLOJavDtrcs3JnQ8-95" source="Caj5VLOJavDtrcs3JnQ8-108" target="Caj5VLOJavDtrcs3JnQ8-104">
          <mxGeometry relative="1" as="geometry" />
        </mxCell>
        <mxCell id="Caj5VLOJavDtrcs3JnQ8-119" style="rounded=0;orthogonalLoop=1;jettySize=auto;html=1;exitX=1;exitY=1;exitDx=0;exitDy=0;entryX=0;entryY=0;entryDx=0;entryDy=0;" edge="1" parent="Caj5VLOJavDtrcs3JnQ8-95" source="Caj5VLOJavDtrcs3JnQ8-109" target="Caj5VLOJavDtrcs3JnQ8-104">
          <mxGeometry relative="1" as="geometry">
            <mxPoint x="202.1052631578947" y="172.71428571428572" as="targetPoint" />
          </mxGeometry>
        </mxCell>
        <mxCell id="Caj5VLOJavDtrcs3JnQ8-120" style="rounded=0;orthogonalLoop=1;jettySize=auto;html=1;exitX=0;exitY=1;exitDx=0;exitDy=0;entryX=1;entryY=0;entryDx=0;entryDy=0;strokeColor=#ff2600;strokeWidth=2;dashed=1;" edge="1" parent="Caj5VLOJavDtrcs3JnQ8-95" source="Caj5VLOJavDtrcs3JnQ8-104" target="Caj5VLOJavDtrcs3JnQ8-113">
          <mxGeometry relative="1" as="geometry" />
        </mxCell>
        <mxCell id="Caj5VLOJavDtrcs3JnQ8-121" style="rounded=0;orthogonalLoop=1;jettySize=auto;html=1;exitX=0;exitY=1;exitDx=0;exitDy=0;entryX=1;entryY=0;entryDx=0;entryDy=0;strokeColor=#000000;strokeWidth=1;" edge="1" parent="Caj5VLOJavDtrcs3JnQ8-95" source="Caj5VLOJavDtrcs3JnQ8-103" target="Caj5VLOJavDtrcs3JnQ8-112">
          <mxGeometry relative="1" as="geometry" />
        </mxCell>
        <mxCell id="Caj5VLOJavDtrcs3JnQ8-122" style="rounded=0;orthogonalLoop=1;jettySize=auto;html=1;exitX=0;exitY=0;exitDx=0;exitDy=0;entryX=1;entryY=1;entryDx=0;entryDy=0;" edge="1" parent="Caj5VLOJavDtrcs3JnQ8-95" source="Caj5VLOJavDtrcs3JnQ8-112" target="Caj5VLOJavDtrcs3JnQ8-99">
          <mxGeometry relative="1" as="geometry" />
        </mxCell>
        <mxCell id="Caj5VLOJavDtrcs3JnQ8-123" style="rounded=0;orthogonalLoop=1;jettySize=auto;html=1;exitX=0;exitY=0;exitDx=0;exitDy=0;entryX=1;entryY=1;entryDx=0;entryDy=0;" edge="1" parent="Caj5VLOJavDtrcs3JnQ8-95" source="Caj5VLOJavDtrcs3JnQ8-112" target="Caj5VLOJavDtrcs3JnQ8-100">
          <mxGeometry relative="1" as="geometry" />
        </mxCell>
        <mxCell id="Caj5VLOJavDtrcs3JnQ8-124" style="rounded=0;orthogonalLoop=1;jettySize=auto;html=1;exitX=0;exitY=0;exitDx=0;exitDy=0;entryX=1;entryY=1;entryDx=0;entryDy=0;" edge="1" parent="Caj5VLOJavDtrcs3JnQ8-95" source="Caj5VLOJavDtrcs3JnQ8-113" target="Caj5VLOJavDtrcs3JnQ8-100">
          <mxGeometry relative="1" as="geometry" />
        </mxCell>
        <mxCell id="Caj5VLOJavDtrcs3JnQ8-125" style="rounded=0;orthogonalLoop=1;jettySize=auto;html=1;exitX=0;exitY=0;exitDx=0;exitDy=0;entryX=1;entryY=1;entryDx=0;entryDy=0;strokeColor=#ff2600;strokeWidth=2;dashed=1;" edge="1" parent="Caj5VLOJavDtrcs3JnQ8-95" source="Caj5VLOJavDtrcs3JnQ8-113" target="Caj5VLOJavDtrcs3JnQ8-99">
          <mxGeometry relative="1" as="geometry" />
        </mxCell>
        <mxCell id="Caj5VLOJavDtrcs3JnQ8-126" style="rounded=0;orthogonalLoop=1;jettySize=auto;html=1;exitX=1;exitY=0;exitDx=0;exitDy=0;entryX=0;entryY=0.5;entryDx=0;entryDy=0;strokeColor=#FF0000;strokeWidth=2;dashed=1;" edge="1" parent="Caj5VLOJavDtrcs3JnQ8-95" source="Caj5VLOJavDtrcs3JnQ8-99" target="Caj5VLOJavDtrcs3JnQ8-109">
          <mxGeometry relative="1" as="geometry" />
        </mxCell>
        <mxCell id="Caj5VLOJavDtrcs3JnQ8-127" style="rounded=0;orthogonalLoop=1;jettySize=auto;html=1;entryX=0;entryY=0;entryDx=0;entryDy=0;strokeColor=#FF0000;strokeWidth=2;exitX=1;exitY=1;exitDx=0;exitDy=0;dashed=1;" edge="1" parent="Caj5VLOJavDtrcs3JnQ8-95" source="Caj5VLOJavDtrcs3JnQ8-109" target="Caj5VLOJavDtrcs3JnQ8-103">
          <mxGeometry relative="1" as="geometry">
            <mxPoint x="147" y="-80" as="sourcePoint" />
          </mxGeometry>
        </mxCell>
        <mxCell id="Caj5VLOJavDtrcs3JnQ8-128" value="$$\mathcal{G}(\mathbf{U})$$&amp;nbsp;" style="text;html=1;strokeColor=none;fillColor=none;align=center;verticalAlign=middle;whiteSpace=wrap;rounded=0;fontSize=20;" vertex="1" parent="Caj5VLOJavDtrcs3JnQ8-3">
          <mxGeometry x="882.9200000000001" width="194" height="30" as="geometry" />
        </mxCell>
      </root>
    </mxGraphModel>
  </diagram>
</mxfile>
